<svg width="2399" height="2453" viewBox="0 0 2399 2453" fill="none" xmlns="http://www.w3.org/2000/svg">
<path d="M1730.87 2014.57L1604.56 2114.27C1593.39 2123.38 1578.11 2124.96 1564.98 2118.39C1549.91 2111.38 1532.79 2091.81 1532.1 2071.86L1522.64 1880.89L1451.71 1937.01C1440.14 1946.49 1424.48 1947.67 1410.97 1940.7C1397.84 1934.13 1378.78 1914.12 1379.32 1891.46L1384.71 1700.86L1318.94 1753.58C1307.78 1762.69 1292.49 1764.27 1279.36 1757.7C1264.29 1750.68 1247.17 1731.12 1246.48 1711.17L1237.02 1520.2L1165.29 1577.08C1154.13 1586.18 1138.06 1587.75 1124.93 1581.17C1112.18 1575 1092.72 1555.37 1092.87 1533.1L1093.12 1328.3L1025.37 1382.15C1014.21 1391.25 998.928 1392.83 985.797 1386.26C970.723 1379.25 953.606 1359.68 952.915 1339.73L943.452 1148.77L857.378 1217.01L813.003 1160.82L940.913 1059.59C952.077 1050.48 967.359 1048.9 980.49 1055.48C995.564 1062.49 1012.68 1082.06 1013.37 1102.01L1022.84 1292.97L1092.96 1237.62C1104.13 1228.51 1120.19 1226.95 1133.32 1233.53C1146.07 1239.7 1165.53 1259.33 1165.38 1281.6L1165.13 1486.4L1234.86 1431.43C1246.02 1422.32 1261.31 1420.74 1274.44 1427.31C1289.51 1434.33 1306.63 1453.9 1307.32 1473.85L1316.78 1664.81L1386.11 1610.22C1397.67 1600.73 1413.34 1599.55 1426.85 1606.53C1439.98 1613.1 1459.04 1633.11 1458.49 1655.76L1452.35 1845.56L1519.7 1792.1C1530.86 1782.99 1546.14 1781.41 1559.27 1787.99C1574.35 1795 1591.46 1814.57 1592.16 1834.52L1601.62 2025.48L1686.09 1958.76L1730.87 2014.57Z" fill="#222323"/>
<path d="M2135.8 2209.64C2127.8 2217.26 2115.98 2220.88 2104.68 2219.43C2079.76 2215.7 2049.05 2176.26 2044.19 2167.15L1836.16 1766.16C1835.78 1765.76 1835.02 1764.96 1834.64 1764.56L1756.13 1843.15C1747.71 1851.93 1735.52 1855.15 1723.46 1852.91C1700.11 1848.43 1667.8 1810.51 1662.62 1798.66L1478.83 1397.48C1478.44 1397.08 1478.06 1396.68 1477.3 1395.88L1400.42 1472.17C1392.4 1480.57 1380.58 1484.19 1368.9 1482.34C1343.98 1478.6 1313.27 1439.16 1308.41 1430.05L1100.38 1029.07C1100 1028.67 1099.24 1027.87 1098.85 1027.47L1019.55 1106.82C1011.53 1115.22 998.936 1118.82 987.255 1116.97C964.293 1112.9 932.366 1075.38 926.399 1063.51L722.078 638.379C721.697 637.979 720.934 637.179 720.553 636.779L642.849 714.609C634.448 722.611 623.016 726.631 611.335 724.782C586.411 721.047 555.703 681.605 550.842 672.497L342.812 271.509C342.43 271.109 341.668 270.308 341.287 269.908L249.162 362.238L198.406 311.363L313.39 194.97C321.41 186.568 333.223 182.948 344.904 184.797C369.829 188.532 400.536 227.974 405.397 237.082L613.809 638.47C614.19 638.87 614.953 639.671 615.334 640.071L693.038 562.24C701.057 553.838 713.652 550.237 725.333 552.086C748.295 556.164 780.221 593.682 786.189 605.552L990.509 1030.68C990.891 1031.08 991.653 1031.88 992.034 1032.28L1071.34 952.927C1079.74 944.925 1091.17 940.905 1102.85 942.754C1127.78 946.489 1158.48 985.931 1163.35 995.039L1371.38 1396.03C1371.76 1396.43 1372.52 1397.23 1372.9 1397.63L1449.8 1320.56C1458.61 1312.18 1470.42 1308.56 1482.48 1310.81C1505.82 1315.28 1538.13 1353.2 1543.32 1365.05L1727.11 1766.23C1727.49 1766.63 1727.87 1767.03 1728.64 1767.83L1807.14 1689.24C1815.16 1680.84 1826.97 1677.22 1838.65 1679.07C1863.58 1682.8 1894.29 1722.24 1899.15 1731.35L2107.18 2132.34C2107.56 2132.74 2108.32 2133.54 2108.7 2133.94L2199.23 2043.13L2249.98 2094.01L2136.24 2207.7C2136.2 2209.26 2135.8 2209.64 2135.8 2209.64ZM1835.8 1764.98C1835.4 1765.36 1835.4 1765.36 1835.8 1764.98V1764.98ZM1727.85 1767.81C1727.84 1768.59 1727.84 1768.59 1727.85 1767.81V1767.81ZM342.068 269.927C342.068 269.927 342.449 270.327 342.068 269.927V269.927Z" fill="#222323"/>
<path d="M2252.37 1931.43L2164.49 2009.8C2155.71 2017.4 2143.51 2020.62 2131.85 2017.99C2110.09 2012.77 2089.71 1982.56 2085.63 1973.48L1980.51 1713.35L1930.98 1757.48C1921.8 1765.46 1909.22 1768.28 1897.18 1765.25C1877.76 1760.09 1855.76 1732.19 1851.4 1718.8L1762.27 1460.23L1714.74 1502.45C1705.95 1510.06 1693.76 1513.28 1682.1 1510.65C1660.34 1505.42 1639.96 1475.22 1635.88 1466.14L1530.76 1206.01L1480.03 1251.28C1470.85 1259.26 1458.65 1262.48 1446.61 1259.45C1425.63 1254.25 1404.45 1224.81 1400.81 1213.78L1299.96 938.907L1251.62 981.89C1242.84 989.492 1230.65 992.711 1218.99 990.082C1197.22 984.86 1176.85 954.659 1172.77 945.57L1067.65 685.445L1007.34 739.079L959.779 685.155L1049.24 606.048C1058.02 598.446 1070.22 595.226 1081.88 597.856C1103.64 603.078 1124.02 633.279 1128.1 642.367L1233.22 902.492L1282.35 858.747C1291.53 850.764 1303.72 847.544 1315.77 850.574C1336.75 855.777 1357.93 885.215 1361.57 896.248L1462.42 1171.12L1511.95 1126.99C1520.73 1119.39 1532.93 1116.17 1544.59 1118.8C1566.35 1124.02 1586.73 1154.22 1590.81 1163.31L1695.93 1423.44L1744.26 1380.45C1753.44 1372.47 1766.02 1369.65 1778.06 1372.68C1797.48 1377.85 1819.48 1405.74 1823.84 1419.14L1912.97 1677.7L1961.7 1634.33C1970.49 1626.73 1982.68 1623.51 1994.34 1626.14C2016.1 1631.36 2036.48 1661.57 2040.56 1670.65L2145.3 1930.38L2204.41 1877.89L2252.37 1931.43Z" fill="#222323"/>
</svg>
