<svg width="40" height="40" viewBox="0 0 40 40" fill="none"
    xmlns="http://www.w3.org/2000/svg">
    <path d="M19.9935 36.0746C16.8142 36.0746 13.7063 35.1318 11.0629 33.3655C8.41945 31.5992 6.35912 29.0887 5.14248 26.1515C3.92583 23.2142 3.6075 19.9822 4.22775 16.864C4.84799 13.7458 6.37894 10.8816 8.62701 8.63356C10.8751 6.38549 13.7393 4.85454 16.8575 4.23429C19.9756 3.61405 23.2077 3.93238 26.1449 5.14903C29.0822 6.36568 31.5927 8.426 33.359 11.0694C35.1253 13.7129 36.068 16.8208 36.068 20C36.0646 24.2622 34.3699 28.3488 31.3561 31.3626C28.3423 34.3764 24.2556 36.0711 19.9935 36.0746ZM19.9935 40C23.9494 40.0013 27.8168 38.8294 31.1066 36.6326C34.3965 34.4357 36.9609 31.3126 38.4757 27.6582C39.9905 24.0038 40.3875 19.9823 39.6165 16.1022C38.8455 12.2222 36.9412 8.65789 34.1444 5.86019C31.3477 3.06248 27.784 1.15702 23.9042 0.384783C20.0244 -0.387453 16.0027 0.00823002 12.3478 1.52179C8.69294 3.03535 5.56898 5.5988 3.37107 8.88792C1.17315 12.177 2.09429e-06 16.0441 1.74846e-06 20C-0.000856788 22.6261 0.515653 25.2267 1.52004 27.6532C2.52441 30.0796 3.99698 32.2845 5.85363 34.1417C7.71028 35.999 9.91463 37.4723 12.3408 38.4775C14.7669 39.4826 17.3673 40 19.9935 40Z" fill="#E6E6E6"/>
    <path d="M14.9101 22.2964L20.4711 27.949C20.6249 28.1039 20.8079 28.2268 21.0095 28.3107C21.211 28.3946 21.4271 28.4377 21.6455 28.4377C21.8638 28.4377 22.0799 28.3946 22.2815 28.3107C22.483 28.2268 22.666 28.1039 22.8198 27.949C23.131 27.6374 23.3058 27.215 23.3058 26.7746C23.3058 26.3342 23.131 25.9119 22.8198 25.6003L18.4233 21.1384C18.1121 20.8268 17.9373 20.4044 17.9373 19.964C17.9373 19.5236 18.1121 19.1013 18.4233 18.7897L22.8852 14.3998C23.1969 14.0871 23.3718 13.6636 23.3718 13.2221C23.3718 12.7807 23.1969 12.3572 22.8852 12.0445C22.5736 11.7333 22.1513 11.5585 21.7109 11.5585C21.2705 11.5585 20.8481 11.7333 20.5365 12.0445L13.7652 18.7635C13.6103 18.9174 13.4874 19.1003 13.4035 19.3019C13.3196 19.5034 13.2764 19.7196 13.2764 19.9379C13.2764 20.1562 13.3196 20.3723 13.4035 20.5739C13.4874 20.7754 13.6103 20.9584 13.7652 21.1122L14.9101 22.2964Z" fill="#E6E6E6"/>
</svg>
