<svg width="40" height="40" viewBox="0 0 40 40" fill="none" xmlns="http://www.w3.org/2000/svg">
<path d="M20.0065 3.92542C23.1858 3.92542 26.2937 4.86818 28.9371 6.63447C31.5806 8.40077 33.6409 10.9113 34.8575 13.8485C36.0742 16.7858 36.3925 20.0178 35.7723 23.136C35.152 26.2542 33.6211 29.1184 31.373 31.3664C29.1249 33.6145 26.2607 35.1455 23.1425 35.7657C20.0244 36.3859 16.7923 36.0676 13.8551 34.851C10.9178 33.6343 8.40732 31.574 6.64102 28.9306C4.87473 26.2871 3.93197 23.1792 3.93197 20C3.93543 15.7378 5.63011 11.6512 8.64393 8.63738C11.6577 5.62356 15.7444 3.92888 20.0065 3.92542ZM20.0065 1.07056e-06C16.0506 -0.00129298 12.1832 1.17059 8.89336 3.36743C5.60352 5.56427 3.03905 8.68739 1.5243 12.3418C0.0095408 15.9962 -0.387459 20.0177 0.383506 23.8978C1.15447 27.7778 3.05877 31.3421 5.85556 34.1398C8.65235 36.9375 12.216 38.843 16.0958 39.6152C19.9756 40.3875 23.9973 39.9918 27.6522 38.4782C31.3071 36.9646 34.431 34.4012 36.6289 31.1121C38.8269 27.823 40 23.9559 40 20C40.0009 17.3739 39.4843 14.7733 38.48 12.3468C37.4756 9.92035 36.003 7.71552 34.1464 5.85826C32.2897 4.001 30.0854 2.52771 27.6592 1.52254C25.2331 0.517364 22.6327 9.29959e-07 20.0065 1.07056e-06Z" fill="#E6E6E6"/>
<path d="M25.0899 17.7036L19.5289 12.051C19.3751 11.8961 19.1921 11.7732 18.9905 11.6893C18.789 11.6054 18.5729 11.5623 18.3545 11.5623C18.1362 11.5623 17.9201 11.6054 17.7185 11.6893C17.517 11.7732 17.334 11.8961 17.1802 12.051C16.869 12.3626 16.6942 12.785 16.6942 13.2254C16.6942 13.6658 16.869 14.0881 17.1802 14.3997L21.5767 18.8616C21.8879 19.1732 22.0627 19.5956 22.0627 20.036C22.0627 20.4763 21.8879 20.8987 21.5767 21.2103L17.1148 25.6002C16.8031 25.9129 16.6282 26.3364 16.6282 26.7779C16.6282 27.2193 16.8031 27.6428 17.1148 27.9555C17.4264 28.2667 17.8487 28.4415 18.2891 28.4415C18.7295 28.4415 19.1519 28.2667 19.4635 27.9555L26.2348 21.2365C26.3897 21.0826 26.5126 20.8997 26.5965 20.6981C26.6804 20.4966 26.7236 20.2804 26.7236 20.0621C26.7236 19.8438 26.6804 19.6277 26.5965 19.4261C26.5126 19.2246 26.3897 19.0416 26.2348 18.8878L25.0899 17.7036Z" fill="#E6E6E6"/>
</svg>
