<svg width="450" height="5027" viewBox="0 0 450 5027" fill="none" xmlns="http://www.w3.org/2000/svg">
<mask id="mask0_384_165" style="mask-type:alpha" maskUnits="userSpaceOnUse" x="0" y="0" width="451" height="5027">
<path d="M73.9622 3749.15C46.6908 3620.17 30.4037 3485.62 25.8584 3351.07C19.7981 3179.1 34.5701 3079.58 48.9634 2984.04C61.084 2903.62 72.0684 2827.19 73.5835 2700.6C75.0985 2565.25 63.7354 2497.58 49.7209 2412.39C37.2215 2335.96 22.8283 2249.97 14.8741 2103.47C1.99594 1873.38 25.4797 1745.2 45.9332 1632.94C63.3566 1537.4 78.5075 1454.6 69.7958 1314.47C66.3868 1258.74 56.5388 1204.6 45.1757 1140.91C26.616 1038.2 3.51101 910.02 0.480849 726.901C-0.65546 664.8 0.480838 604.292 1.23838 574.037L61.8416 579.611C61.084 608.273 60.3265 664.8 61.084 722.124C63.7354 883.746 83.8102 996.006 101.991 1095.53C114.112 1163.2 125.854 1227.69 130.02 1297.75C140.626 1469.73 121.308 1575.62 102.749 1678.32C83.0527 1787.4 64.1142 1889.31 75.0985 2089.14C82.2951 2221.31 94.7945 2297.74 106.915 2370.99C121.687 2460.95 135.702 2546.14 134.187 2703.78C132.672 2848.69 119.036 2941.04 106.915 3022.25C93.2794 3114.61 81.5376 3194.22 86.4616 3342.31C90.6281 3462.53 105.021 3582.75 129.641 3698.2L73.9622 3749.15Z" fill="#222323"/>
<path d="M224.334 5027C222.819 4980.03 219.789 4886.08 218.653 4788.95C215.623 4508.69 233.046 4316.02 248.197 4146.44C257.666 4039.75 265.999 3948.19 267.893 3851.86C272.059 3610.62 252.363 3468.1 231.531 3316.83C208.047 3148.05 181.533 2956.17 186.079 2605.06C189.109 2378.95 200.093 2243.6 209.562 2123.38C220.925 1984.05 230.395 1864.62 224.334 1637.72C218.653 1427.53 203.502 1297.75 188.73 1172.75C171.307 1022.28 154.641 879.765 154.641 617.826C154.641 410.026 166.004 202.226 187.973 0L236.076 23.0889C214.865 217.354 204.26 417.988 203.881 617.826C203.881 867.026 219.789 1003.17 236.455 1148.07C251.606 1277.85 267.135 1411.6 273.196 1631.35C279.635 1870.2 269.787 1995.2 258.045 2140.89C248.576 2257.13 237.97 2389.3 234.94 2607.45C230.395 2942.63 255.015 3117.79 278.499 3287.37C300.467 3446.61 321.299 3597.08 317.133 3855.04C315.239 3959.34 306.149 4059.66 296.679 4165.55C281.907 4330.35 264.863 4517.45 267.893 4786.56C269.029 4881.3 271.681 4972.86 273.574 5019.04L224.334 5027Z" fill="#222323"/>
<path d="M336.07 3071.61C311.829 2971.29 298.951 2868.59 297.814 2765.88C296.299 2633.72 314.48 2561.27 331.525 2490.41C345.161 2434.68 358.039 2382.13 362.584 2292.96C367.129 2199.01 358.796 2152.83 347.055 2088.35C336.449 2029.43 324.328 1963.35 319.783 1852.68C312.965 1675.93 340.616 1581.98 364.857 1499.98C384.932 1432.3 400.461 1378.96 395.916 1282.62C394.022 1244.41 386.068 1204.6 376.599 1158.42C360.69 1078.81 340.616 980.081 342.509 841.548C343.267 794.574 345.918 749.989 347.433 726.9L400.082 742.823C398.567 763.523 396.295 803.332 395.916 844.732C394.401 959.38 410.309 1038.2 425.839 1114.63C436.444 1167.18 446.671 1216.54 448.944 1271.48C455.383 1406.03 431.141 1487.24 409.93 1558.89C387.962 1632.94 367.129 1703.8 372.432 1843.92C376.22 1938.67 386.447 1994.4 396.295 2048.54C409.173 2118.6 421.293 2184.68 415.233 2304.9C409.552 2414.77 393.265 2481.65 378.493 2541.36C362.963 2605.06 349.327 2659.2 350.464 2763.5C351.221 2849.48 362.205 2935.47 383.038 3021.45L336.07 3071.61Z" fill="#222323"/>
</mask>
<g mask="url(#mask0_384_165)">
<rect x="-97.2419" y="972.917" width="606.032" height="1982.46" fill="#202223"/>
</g>
</svg>
