<svg width="7" height="11" viewBox="0 0 7 11" fill="none" xmlns="http://www.w3.org/2000/svg">
<path d="M5.68116 4.06476L2.20553 0.531881C2.10938 0.435078 1.99503 0.358252 1.86906 0.305826C1.74309 0.2534 1.608 0.22641 1.47156 0.22641C1.33512 0.22641 1.20003 0.2534 1.07406 0.305826C0.948094 0.358252 0.833742 0.435078 0.73759 0.531881C0.543078 0.726621 0.433821 0.990609 0.433821 1.26585C0.433821 1.5411 0.543078 1.80508 0.73759 1.99982L3.48538 4.7885C3.67989 4.98324 3.78915 5.24723 3.78915 5.52248C3.78915 5.79772 3.67989 6.06171 3.48538 6.25645L0.6967 9.00015C0.501938 9.19559 0.392578 9.46025 0.392578 9.73616C0.392578 10.0121 0.501938 10.2767 0.6967 10.4722C0.89144 10.6667 1.15543 10.7759 1.43067 10.7759C1.70591 10.7759 1.9699 10.6667 2.16464 10.4722L6.39673 6.2728C6.49353 6.17665 6.57036 6.0623 6.62279 5.93633C6.67521 5.81036 6.7022 5.67527 6.7022 5.53883C6.7022 5.40239 6.67521 5.2673 6.62279 5.14133C6.57036 5.01536 6.49353 4.90101 6.39673 4.80486L5.68116 4.06476Z" fill="#E6E6E6"/>
</svg>
