<svg width="1013" height="1001" viewBox="0 0 1013 1001" fill="none"
    xmlns="http://www.w3.org/2000/svg">
    <path d="M219.013 1000.5C186.854 1000.5 157.554 994.785 131.112 984.066C51.0715 951.192 -20.3929 838.992 5.33427 731.796C21.7711 664.619 113.96 596.013 200.432 588.867C281.902 581.72 349.078 624.599 385.525 707.498C402.677 745.374 413.396 786.824 419.113 828.988C449.128 804.69 475.57 776.104 494.866 745.374C512.017 716.788 528.454 689.632 542.747 663.904C511.303 664.619 479.858 656.758 451.272 640.321C389.813 606.018 335.5 528.122 359.798 438.791C379.093 367.327 435.55 313.729 511.303 295.863C569.189 281.57 623.502 293.004 652.088 324.448C683.532 358.751 699.969 395.198 705.686 433.789C718.549 413.779 730.698 391.625 742.847 368.042C746.421 360.181 749.994 353.034 753.567 345.173C733.557 343.029 714.262 336.597 698.539 325.878C664.236 303.724 638.509 266.562 631.363 227.971C624.216 192.239 632.078 157.936 653.517 127.207C689.964 75.7522 762.143 38.5905 816.456 67.1763C854.332 87.1864 874.342 135.068 875.057 203.674C890.779 187.237 903.642 167.227 912.218 142.214C925.796 99.3353 917.935 57.1716 908.645 30.0152L996.546 0C1016.56 59.3155 1017.99 117.916 1000.83 170.8C977.965 240.835 925.082 298.007 857.905 327.307C850.044 355.893 839.324 383.764 826.461 409.491C803.592 455.943 749.994 550.991 674.956 611.021C649.229 672.48 611.353 734.655 575.621 793.255C541.318 849.712 487.005 901.881 422.687 939.758C422.687 940.472 422.687 940.472 422.687 941.187H420.543C406.964 949.048 392.672 956.909 377.664 963.341C322.636 987.639 268.323 1000.5 219.013 1000.5ZM218.298 681.056C215.44 681.056 211.867 681.056 209.008 681.771C153.266 686.773 101.097 733.225 96.0941 753.95C81.8012 811.836 123.251 881.157 166.844 899.023C210.437 916.889 271.182 908.313 330.498 882.586C329.068 833.99 319.063 787.538 300.482 745.374C281.902 701.781 254.745 681.056 218.298 681.056ZM559.184 382.335C548.464 382.335 535.601 383.764 520.593 389.481C499.154 396.628 461.992 415.923 449.129 463.09C438.409 502.395 464.851 540.986 497.01 558.852C519.164 571.716 540.603 573.859 564.901 566.713C575.621 563.14 586.34 558.137 597.775 550.991C622.072 483.814 622.787 430.216 583.482 386.622C579.908 384.479 571.333 382.335 559.184 382.335ZM771.433 149.36C761.428 150.79 740.703 162.224 727.84 180.09C721.408 189.381 719.264 198.671 720.693 209.391C723.552 223.684 734.272 238.691 747.135 247.267C752.852 250.84 762.857 252.984 776.436 252.269C784.297 202.244 780.009 162.224 771.433 149.36Z" fill="#202223"/>
</svg>
