<svg width="39" height="39" viewBox="0 0 39 39" fill="none" xmlns="http://www.w3.org/2000/svg">
<mask id="path-1-inside-1_381_396" fill="white">
<path d="M19.3227 2.64754C22.6596 2.64629 25.9219 3.63465 28.697 5.48762C31.4722 7.34058 33.6355 9.97492 34.9133 13.0574C36.1911 16.14 36.5261 19.5322 35.8759 22.8051C35.2257 26.0781 33.6194 29.0846 31.2603 31.4446C28.9012 33.8046 25.8953 35.4119 22.6226 36.0634C19.3499 36.7149 15.9575 36.3811 12.8745 35.1045C9.79154 33.8278 7.1564 31.6655 5.30239 28.891C3.44839 26.1166 2.4588 22.8547 2.4588 19.5178C2.46215 15.0456 4.23975 10.7575 7.40144 7.59465C10.5631 4.43177 14.8506 2.65256 19.3227 2.64754ZM19.3227 0.195068C15.5011 0.195068 11.7652 1.32833 8.58759 3.45153C5.40999 5.57474 2.93335 8.59254 1.47086 12.1233C0.00837228 15.6541 -0.374282 19.5392 0.371289 23.2875C1.11686 27.0357 2.95717 30.4787 5.6595 33.181C8.36183 35.8833 11.8048 37.7236 15.553 38.4692C19.3013 39.2148 23.1864 38.8321 26.7172 37.3696C30.248 35.9072 33.2658 33.4305 35.389 30.2529C37.5122 27.0753 38.6454 23.3395 38.6454 19.5178C38.6454 14.3931 36.6097 9.47827 32.9859 5.85456C29.3622 2.23085 24.4474 0.195068 19.3227 0.195068Z"/>
</mask>
<path d="M19.3227 2.64754C22.6596 2.64629 25.9219 3.63465 28.697 5.48762C31.4722 7.34058 33.6355 9.97492 34.9133 13.0574C36.1911 16.14 36.5261 19.5322 35.8759 22.8051C35.2257 26.0781 33.6194 29.0846 31.2603 31.4446C28.9012 33.8046 25.8953 35.4119 22.6226 36.0634C19.3499 36.7149 15.9575 36.3811 12.8745 35.1045C9.79154 33.8278 7.1564 31.6655 5.30239 28.891C3.44839 26.1166 2.4588 22.8547 2.4588 19.5178C2.46215 15.0456 4.23975 10.7575 7.40144 7.59465C10.5631 4.43177 14.8506 2.65256 19.3227 2.64754ZM19.3227 0.195068C15.5011 0.195068 11.7652 1.32833 8.58759 3.45153C5.40999 5.57474 2.93335 8.59254 1.47086 12.1233C0.00837228 15.6541 -0.374282 19.5392 0.371289 23.2875C1.11686 27.0357 2.95717 30.4787 5.6595 33.181C8.36183 35.8833 11.8048 37.7236 15.553 38.4692C19.3013 39.2148 23.1864 38.8321 26.7172 37.3696C30.248 35.9072 33.2658 33.4305 35.389 30.2529C37.5122 27.0753 38.6454 23.3395 38.6454 19.5178C38.6454 14.3931 36.6097 9.47827 32.9859 5.85456C29.3622 2.23085 24.4474 0.195068 19.3227 0.195068Z" fill="#E6E6E6"/>
<path d="M2.4588 19.5178L1.4588 19.517V19.5178H2.4588ZM38.6454 19.5178H39.6454H38.6454ZM19.3231 3.64754C22.4622 3.64637 25.5311 4.57614 28.1418 6.31927L29.2523 4.65597C26.3127 2.69316 22.857 1.64622 19.3223 1.64754L19.3231 3.64754ZM28.1418 6.31927C30.7524 8.0624 32.7874 10.5406 33.9895 13.4404L35.8371 12.6745C34.4835 9.40926 32.192 6.61877 29.2523 4.65597L28.1418 6.31927ZM33.9895 13.4404C35.1916 16.3402 35.5067 19.5313 34.8951 22.6103L36.8567 23C37.5455 19.5331 37.1907 15.9397 35.8371 12.6745L33.9895 13.4404ZM34.8951 22.6103C34.2834 25.6892 32.7724 28.5175 30.5531 30.7376L31.9676 32.1516C34.4665 29.6517 36.168 26.4669 36.8567 23L34.8951 22.6103ZM30.5531 30.7376C28.3338 32.9577 25.506 34.4698 22.4274 35.0826L22.8178 37.0442C26.2845 36.3541 29.4686 34.6515 31.9676 32.1516L30.5531 30.7376ZM22.4274 35.0826C19.3487 35.6955 16.1574 35.3815 13.2571 34.1805L12.4919 36.0284C15.7577 37.3807 19.3511 37.7342 22.8178 37.0442L22.4274 35.0826ZM13.2571 34.1805C10.3569 32.9795 7.87794 30.9454 6.13383 28.3354L4.47095 29.4467C6.43485 32.3855 9.22619 34.676 12.4919 36.0284L13.2571 34.1805ZM6.13383 28.3354C4.38973 25.7255 3.4588 22.6569 3.4588 19.5178H1.4588C1.4588 23.0525 2.50704 26.5078 4.47095 29.4467L6.13383 28.3354ZM3.4588 19.5185C3.46195 15.3113 5.13426 11.2772 8.10868 8.30163L6.69421 6.88768C3.34524 10.2379 1.46235 14.78 1.4588 19.517L3.4588 19.5185ZM8.10868 8.30163C11.0831 5.32609 15.1166 3.65227 19.3238 3.64754L19.3216 1.64754C14.5846 1.65286 10.0432 3.53746 6.69421 6.88768L8.10868 8.30163ZM19.3227 -0.804932C15.3033 -0.804932 11.3741 0.386974 8.03202 2.62006L9.14316 4.283C12.1563 2.26968 15.6988 1.19507 19.3227 1.19507V-0.804932ZM8.03202 2.62006C4.68997 4.85315 2.08516 8.02713 0.546983 11.7406L2.39474 12.506C3.78155 9.15795 6.13001 6.29633 9.14316 4.283L8.03202 2.62006ZM0.546983 11.7406C-0.991195 15.4541 -1.39365 19.5403 -0.609496 23.4825L1.35207 23.0924C0.645088 19.5381 1.00794 15.854 2.39474 12.506L0.546983 11.7406ZM-0.609496 23.4825C0.17466 27.4248 2.11021 31.0459 4.95239 33.8881L6.36661 32.4739C3.80413 29.9114 2.05906 26.6466 1.35207 23.0924L-0.609496 23.4825ZM4.95239 33.8881C7.79458 36.7303 11.4157 38.6658 15.358 39.45L15.7481 37.4884C12.1939 36.7814 8.92908 35.0364 6.36661 32.4739L4.95239 33.8881ZM15.358 39.45C19.3002 40.2342 23.3864 39.8317 27.0999 38.2935L26.3345 36.4458C22.9865 37.8326 19.3024 38.1954 15.7481 37.4884L15.358 39.45ZM27.0999 38.2935C30.8134 36.7553 33.9874 34.1505 36.2204 30.8085L34.5575 29.6973C32.5442 32.7105 29.6826 35.059 26.3345 36.4458L27.0999 38.2935ZM36.2204 30.8085C38.4535 27.4664 39.6454 23.5372 39.6454 19.5178H37.6454C37.6454 23.1417 36.5708 26.6842 34.5575 29.6973L36.2204 30.8085ZM39.6454 19.5178C39.6454 14.1279 37.5043 8.9587 33.6931 5.14745L32.2788 6.56167C35.715 9.99784 37.6454 14.6583 37.6454 19.5178H39.6454ZM33.6931 5.14745C29.8818 1.33621 24.7126 -0.804932 19.3227 -0.804932V1.19507C24.1822 1.19507 28.8427 3.12549 32.2788 6.56167L33.6931 5.14745Z" fill="#E6E6E6" mask="url(#path-1-inside-1_381_396)"/>
<path d="M22.0597 17.6468H20.7387C20.6364 17.6468 20.5383 17.6062 20.466 17.5339C20.3937 17.4616 20.3531 17.3635 20.3531 17.2612V15.9086M22.0597 17.6468L22.1861 12.8367M22.0597 17.6468C22.1499 17.6468 22.2392 17.6647 22.3224 17.6994M22.0597 17.6468L22.5447 17.849C22.4812 17.7849 22.4057 17.7341 22.3224 17.6994M20.3531 15.9086C20.3494 15.7933 20.3697 15.6786 20.4129 15.5717M20.3531 15.9086H19.8531V15.9157M20.3531 15.9086L19.8534 15.9248C19.8533 15.9218 19.8532 15.9188 19.8531 15.9157M20.4129 15.5717C20.4561 15.4648 20.5211 15.3681 20.6038 15.2877C20.6865 15.2074 20.7851 15.1452 20.8932 15.1052C21.0013 15.0652 21.1166 15.0482 21.2317 15.0553M20.4129 15.5717L19.9493 15.3845C20.0185 15.213 20.1228 15.0579 20.2554 14.9291C20.3881 14.8002 20.5462 14.7005 20.7196 14.6363C20.8876 14.5741 21.0664 14.5466 21.2453 14.5553M20.4129 15.5717L19.9493 15.3845C19.8812 15.5531 19.8484 15.734 19.8531 15.9157M21.2317 15.0553H22.1292C22.2969 15.0553 22.4576 14.9887 22.5762 14.8701M21.2317 15.0553L21.2625 14.5562C21.2567 14.5559 21.251 14.5556 21.2453 14.5553M21.2317 15.0553V14.5553H21.2453M22.5762 14.8701C22.6947 14.7516 22.7613 14.5908 22.7613 14.4232V13.4688C22.762 13.3105 22.7032 13.1578 22.5967 13.0408C22.4902 12.9237 22.3437 12.8509 22.1861 12.8367M22.5762 14.8701L22.2226 14.5166C22.1979 14.5414 22.1643 14.5553 22.1292 14.5553H21.2453M22.5762 14.8701L21.2453 14.5553M22.1861 12.8367L22.1411 13.3346C22.1459 13.3351 22.1505 13.3357 22.1551 13.3367H22.1861V12.8367ZM21.2453 14.5553L16.6238 20.074C16.5253 20.074 16.4278 20.0545 16.3369 20.0166L16.5292 19.5551C16.5592 19.5676 16.5913 19.574 16.6238 19.574H16.6238H17.5403H17.5483L17.5483 19.5741C17.7799 19.5778 18.001 19.6714 18.1647 19.8352C18.3285 19.9989 18.4221 20.22 18.4258 20.4516L18.426 20.4596H18.4259V25.4783V25.487L18.4256 25.4957C18.4245 25.5265 18.4296 25.5572 18.4404 25.586C18.4513 25.6149 18.4678 25.6413 18.4889 25.6637C18.51 25.6861 18.5354 25.7041 18.5635 25.7167C18.5903 25.7287 18.619 25.7355 18.6482 25.7368M19.8531 15.9157V17.2612C19.8531 17.4961 19.9464 17.7214 20.1125 17.8874C20.2785 18.0535 20.5038 18.1468 20.7387 18.1468H22.0597H22.0597C22.0839 18.1468 22.1078 18.1516 22.13 18.1609L22.3224 17.6994M22.3224 17.6994L22.13 18.1609C22.1523 18.1702 22.1725 18.1838 22.1895 18.2009C22.2065 18.218 22.2199 18.2384 22.229 18.2607C22.238 18.2831 22.2426 18.307 22.2424 18.3311L22.2424 18.3311V18.3358V19.3787H22.2423L22.2424 19.3833C22.2426 19.4075 22.238 19.4314 22.229 19.4538C22.2199 19.4761 22.2065 19.4964 22.1895 19.5136C22.1725 19.5307 22.1523 19.5443 22.13 19.5536L22.3224 20.0151M22.3224 20.0151L22.13 19.5536C22.1077 19.5629 22.0839 19.5677 22.0597 19.5677H22.0597H20.7071C20.4722 19.5677 20.2469 19.661 20.0809 19.8271L20.4344 20.1806M22.3224 20.0151C22.2392 20.0498 22.1499 20.0677 22.0597 20.0677M22.3224 20.0151C22.4057 19.9804 22.4812 19.9296 22.5447 19.8655C22.6081 19.8014 22.6583 19.7254 22.6922 19.6419C22.7261 19.5583 22.7432 19.4689 22.7424 19.3787L22.0597 20.0677M20.4344 20.1806L20.0809 19.8271C19.9148 19.9931 19.8215 20.2184 19.8215 20.4532V25.5071M20.4344 20.1806C20.3621 20.2529 20.3215 20.351 20.3215 20.4532V25.5099M20.4344 20.1806C20.5067 20.1083 20.6048 20.0677 20.7071 20.0677H22.0597M19.8215 25.5071C19.8206 25.5677 19.7961 25.6256 19.7532 25.6685C19.7103 25.7114 19.6524 25.7359 19.5918 25.7368M19.8215 25.5071C19.8215 25.5066 19.8215 25.5061 19.8215 25.5056L20.3215 25.5099M19.8215 25.5071V25.5099H20.3215M19.5918 25.7368H18.6482M19.5918 25.7368H19.5946V26.2368L19.5903 25.7368C19.5908 25.7368 19.5913 25.7368 19.5918 25.7368ZM18.6482 25.7368C18.6497 25.7369 18.6513 25.7369 18.6528 25.7369L18.6402 26.2368V25.7368H18.6482ZM22.0597 20.0677L20.3215 25.5099M20.2796 13.3367C20.2971 13.3323 20.3147 13.328 20.3324 13.324L20.2204 12.8367V13.3367H20.2796Z" fill="#E6E6E6" stroke="#E6E6E6"/>
</svg>
