<svg width="35" height="46" viewBox="0 0 35 46" fill="none" xmlns="http://www.w3.org/2000/svg">
<path d="M31.4561 9.9193C31.773 10.9756 32.1653 12.0167 32.3841 13.0956C32.8374 15.228 32.8511 17.4304 32.4243 19.5682C31.9975 21.706 31.1392 23.7344 29.9019 25.5292C28.7616 27.2404 27.292 28.7075 25.5788 29.8448C25.4995 29.9082 25.4239 29.9762 25.3524 30.0485L27.7818 34.9072L28.2421 34.6809C29.1927 34.2131 30.1358 33.7303 31.0864 33.2701C31.3144 33.131 31.5687 33.0408 31.8333 33.005C32.0979 32.9693 32.367 32.9888 32.6237 33.0623C32.8804 33.1358 33.119 33.2617 33.3246 33.4321C33.5302 33.6025 33.6981 33.8137 33.818 34.0523C33.9378 34.2909 34.0069 34.5517 34.0208 34.8184C34.0347 35.085 33.9932 35.3517 33.8989 35.6014C33.8045 35.8512 33.6594 36.0787 33.4727 36.2696C33.286 36.4605 33.0618 36.6106 32.8141 36.7104C31.7352 37.2687 30.6337 37.7969 29.4794 38.3703L29.7133 38.8456C30.4677 40.3545 31.1845 41.7729 31.8937 43.2441C32.0905 43.6456 32.1402 44.1034 32.034 44.5377C31.9278 44.972 31.6726 45.3553 31.3127 45.6207C30.9709 45.8781 30.5516 46.0116 30.1239 45.9992C29.6961 45.9869 29.2853 45.8294 28.9588 45.5528C28.6994 45.3153 28.487 45.0312 28.3326 44.7153C27.5781 43.2064 26.8237 41.6974 26.0239 40.0829L25.5486 40.3168C24.5829 40.7996 23.6323 41.2976 22.6515 41.7503C22.3479 41.9187 22.0045 42.0018 21.6576 41.9909C21.3106 41.98 20.9731 41.8754 20.6808 41.6882C20.3885 41.5011 20.1522 41.2383 19.9971 40.9278C19.8419 40.6173 19.7737 40.2706 19.7996 39.9245C19.8165 39.6061 19.9185 39.2982 20.095 39.0328C20.2715 38.7674 20.516 38.5542 20.803 38.4155C21.7838 37.9025 22.7797 37.4196 23.7681 36.9066L24.2736 36.6576L21.8442 31.7611C21.2708 31.9196 20.6898 32.0931 20.1014 32.2289C17.8374 32.7945 15.4767 32.8545 13.1869 32.4046C10.8972 31.9548 8.73459 31.0061 6.85292 29.626C5.03469 28.3616 3.50174 26.73 2.35296 24.8367C1.20419 22.9433 0.465119 20.8301 0.183434 18.6334C-0.452071 14.4737 0.578062 10.2311 3.0504 6.82599C4.30451 5.06533 5.90693 3.58105 7.75829 2.46517C7.89409 2.38218 8.01479 2.27655 8.14305 2.18602L10.0368 1.24293C10.7384 1.01659 11.425 0.752531 12.1342 0.563914C15.1873 -0.262864 18.4156 -0.178945 21.4217 0.805343C24.2255 1.68689 26.7249 3.3392 28.6344 5.57357C29.3285 6.38085 29.917 7.27867 30.5583 8.13876C30.8601 8.74234 31.1619 9.34591 31.4561 9.94948M21.9573 27.5361C24.1718 26.4308 26.009 24.6938 27.2365 22.5446C28.464 20.3955 29.0267 17.9306 28.8537 15.4617C28.6806 12.9927 27.7794 10.6305 26.2641 8.67358C24.7487 6.71669 22.6872 5.25297 20.3402 4.46746C17.9931 3.68194 15.4659 3.60989 13.0779 4.26042C10.6899 4.91094 8.54836 6.25483 6.924 8.12221C5.29963 9.98959 4.26534 12.2966 3.95188 14.7517C3.63842 17.2068 4.05986 19.6997 5.16292 21.9153C6.64792 24.8847 9.24985 27.1439 12.3982 28.1976C15.5465 29.2512 18.9842 29.0134 21.9573 27.5361Z" fill="#E6E6E6"/>
</svg>
