<svg width="1512" height="2881" viewBox="0 0 1512 2881" fill="none" xmlns="http://www.w3.org/2000/svg">
<g clip-path="url(#clip0_394_6)">
<rect width="1512" height="2881" fill="black"/>
<path d="M663.562 734.194C638.077 730.201 615.603 721.803 596.047 709.594C536.905 672.286 494.908 569.995 529.28 483.937C551.069 430.047 633.076 384.373 702.535 389.159C768.03 393.325 815.672 437.367 833.741 510.913C842.392 544.579 845.48 580.42 844.51 616.236C871.466 599.732 896.15 579.215 915.449 556.025C932.771 534.354 949.339 513.784 964.022 494.139C939.01 490.829 915.116 480.38 894.607 463.145C850.377 426.954 817.497 355.354 848.406 283.994C873.02 226.889 924.752 189.273 987.114 183.803C1034.85 179.09 1076.4 195.354 1094.95 225.084C1115.4 257.549 1123.67 289.936 1123.17 322.776C1135.97 307.713 1148.49 290.776 1161.19 272.649C1165.05 266.548 1168.81 261.041 1172.67 254.94C1157.09 250.67 1142.64 242.919 1131.58 232.042C1107.28 209.337 1091.74 175.202 1091.12 142.184C1090.11 111.546 1100.82 83.9617 1121.82 61.0381C1157.41 22.7226 1219.46 0.743888 1258.77 31.2881C1286.18 52.6513 1295.79 95.0019 1287.41 152.212C1302.01 140.479 1314.81 125.415 1324.87 105.655C1341.23 71.6398 1340.5 35.5583 1336.68 11.7943L1410.25 -2.28209C1418.37 49.5885 1411.86 98.5567 1391.37 140.458C1364.11 195.93 1314.74 236.965 1257.69 253.019C1247.73 275.844 1235.6 297.718 1222.05 317.541C1197.86 353.378 1142.99 425.86 1075.69 466.524C1047.29 514.5 1009.16 561.564 973.199 605.918C938.65 648.665 888.803 685.357 832.892 708.907C832.799 709.502 832.799 709.502 832.705 710.097L831.006 709.83C819.221 714.69 806.868 719.46 794.136 722.952C747.359 736.35 702.639 740.316 663.562 734.194ZM704.668 468.134C702.402 467.779 699.571 467.336 697.212 467.576C652.385 464.819 604.983 497.018 598.315 513.652C579.437 560.074 603.242 622.936 635.457 643.224C667.673 663.512 716.931 663.915 767.293 649.859C772.499 609.221 770.63 569.302 761.406 531.89C752.368 493.287 733.551 472.66 704.668 468.134ZM1013.78 261.745C1005.28 260.414 994.903 260.007 982.264 262.903C964.342 266.192 932.375 277.643 916.028 315.316C902.406 346.711 918.326 382.125 941.48 400.993C957.359 414.454 974.069 418.901 994.257 415.968C1003.22 414.324 1012.37 411.49 1022.36 406.959C1050.38 354.045 1057.94 309.508 1032.47 268.332C1029.92 266.103 1023.41 263.253 1013.78 261.745ZM1212.37 94.1243C1204.26 94.0721 1186.34 101.019 1173.82 114.297C1167.51 121.234 1164.6 128.703 1164.33 137.805C1164.73 150.061 1171.27 163.887 1180.34 172.624C1184.41 176.309 1192.06 179.336 1202.91 180.427C1215.67 139.753 1217.49 105.899 1212.37 94.1243Z" fill="#202223"/>
<mask id="mask0_394_6" style="mask-type:alpha" maskUnits="userSpaceOnUse" x="565" y="456" width="383" height="3457">
<path d="M627.95 3033.88C604.739 2945.2 590.877 2852.68 587.008 2760.17C581.85 2641.92 594.423 2573.49 606.673 2507.8C616.989 2452.51 626.338 2399.95 627.628 2312.91C628.917 2219.84 619.246 2173.31 607.318 2114.74C596.68 2062.18 584.429 2003.06 577.659 1902.33C566.699 1744.12 586.686 1655.98 604.094 1578.79C618.923 1513.1 631.818 1456.17 624.404 1359.82C621.502 1321.5 613.121 1284.27 603.449 1240.48C587.653 1169.86 567.988 1081.72 565.409 955.811C564.442 913.111 565.409 871.506 566.054 850.703L617.634 854.535C616.989 874.243 616.344 913.111 616.989 952.526C619.246 1063.66 636.332 1140.84 651.806 1209.27C662.122 1255.81 672.115 1300.15 675.661 1348.32C684.688 1466.57 668.247 1539.38 652.45 1610C635.687 1685 619.568 1755.07 628.917 1892.48C635.042 1983.35 645.68 2035.91 655.996 2086.27C668.569 2148.13 680.497 2206.71 679.208 2315.1C677.918 2414.73 666.312 2478.23 655.996 2534.07C644.391 2597.58 634.397 2652.32 638.588 2754.14C642.134 2836.81 654.385 2919.47 675.339 2998.85L627.95 3033.88Z" fill="#222323"/>
<path d="M755.933 3912.52C754.644 3880.22 752.065 3815.62 751.098 3748.84C748.519 3556.14 763.348 3423.66 776.243 3307.05C784.302 3233.7 791.394 3170.74 793.006 3104.5C796.552 2938.63 779.789 2840.64 762.058 2736.62C742.071 2620.57 719.505 2488.64 723.373 2247.22C725.952 2091.74 735.301 1998.68 743.361 1916.02C753.032 1820.21 761.091 1738.1 755.933 1582.08C751.098 1437.56 738.203 1348.32 725.63 1262.38C710.801 1158.91 696.616 1060.92 696.616 880.811C696.616 737.93 706.287 595.049 724.985 456L765.927 471.876C747.874 605.45 738.847 743.405 738.525 880.811C738.525 1052.16 752.065 1145.77 766.249 1245.4C779.144 1334.64 792.362 1426.61 797.52 1577.7C803 1741.93 794.618 1827.88 784.625 1928.06C776.565 2007.99 767.539 2098.86 764.96 2248.86C761.091 2479.33 782.046 2599.77 802.033 2716.37C820.731 2825.86 838.461 2929.32 834.915 3106.69C833.303 3178.41 825.566 3247.38 817.507 3320.19C804.934 3433.51 790.427 3562.16 793.006 3747.19C793.973 3812.34 796.23 3875.29 797.842 3907.05L755.933 3912.52Z" fill="#222323"/>
<path d="M851.033 2568.01C830.401 2499.04 819.44 2428.42 818.473 2357.8C817.183 2266.92 832.657 2217.11 847.164 2168.38C858.77 2130.06 869.731 2093.93 873.599 2032.62C877.468 1968.02 870.375 1936.27 860.382 1891.93C851.355 1851.42 841.039 1805.98 837.171 1729.89C831.368 1608.36 854.901 1543.76 875.533 1487.37C892.619 1440.84 905.837 1404.16 901.968 1337.92C900.356 1311.64 893.586 1284.27 885.527 1252.52C871.987 1197.78 854.901 1129.89 856.513 1034.64C857.158 1002.34 859.415 971.685 860.704 955.81L905.514 966.758C904.225 980.992 902.29 1008.36 901.968 1036.83C900.679 1115.66 914.218 1169.86 927.436 1222.41C936.462 1258.54 945.166 1292.48 947.101 1330.26C952.581 1422.77 931.949 1478.61 913.896 1527.88C895.198 1578.79 877.468 1627.52 881.981 1723.86C885.205 1789.01 893.909 1827.33 902.29 1864.56C913.251 1912.73 923.567 1958.17 918.409 2040.83C913.574 2116.38 899.711 2162.36 887.139 2203.42C873.921 2247.21 862.316 2284.44 863.283 2356.15C863.928 2415.28 873.277 2474.4 891.007 2533.52L851.033 2568.01Z" fill="#222323"/>
</mask>
<g mask="url(#mask0_394_6)">
<rect x="482.236" y="1124.97" width="515.8" height="1363.12" fill="#202223"/>
</g>
</g>
<defs>
<clipPath id="clip0_394_6">
<rect width="1512" height="2881" fill="white"/>
</clipPath>
</defs>
</svg>
