<svg width="40" height="39" viewBox="0 0 40 39" fill="none" xmlns="http://www.w3.org/2000/svg">
<path d="M26.2656 14.736V14.7393V24.2774C26.2656 24.6477 26.1185 25.0029 25.8567 25.2647C25.5948 25.5266 25.2397 25.6737 24.8694 25.6737H15.325C14.9546 25.6737 14.5995 25.5266 14.3377 25.2647C14.0758 25.0029 13.9287 24.6477 13.9287 24.2774V14.7267C13.9287 14.3564 14.0758 14.0012 14.3377 13.7394C14.5995 13.4775 14.9546 13.3304 15.325 13.3304H24.8694C25.0535 13.3304 25.2359 13.3669 25.4059 13.4376C25.5759 13.5084 25.7302 13.612 25.86 13.7427C25.9898 13.8733 26.0924 14.0283 26.162 14.1988L26.6249 14.0098L26.162 14.1988C26.2316 14.3693 26.2669 14.5519 26.2656 14.736L26.2656 14.736ZM17.7994 23.0814C18.4089 23.492 19.1264 23.7126 19.8613 23.7155C20.3501 23.7174 20.8345 23.623 21.2867 23.4375C21.7389 23.252 22.1501 22.9791 22.4967 22.6345C22.8434 22.2899 23.1186 21.8803 23.3068 21.4292C23.4949 20.9781 23.5923 20.4943 23.5932 20.0055C23.5947 19.2706 23.3782 18.5518 22.9713 17.9399C22.5644 17.3279 21.9852 16.8503 21.3069 16.5674C20.6286 16.2845 19.8817 16.209 19.1606 16.3505C18.4394 16.4919 17.7764 16.8439 17.2552 17.362C16.734 17.8801 16.3781 18.5411 16.2324 19.2614C16.0867 19.9817 16.1578 20.7291 16.4367 21.409C16.7156 22.0889 17.1898 22.6709 17.7994 23.0814ZM22.9772 16.878C23.308 17.2089 23.7568 17.3947 24.2247 17.3947C24.5736 17.3947 24.9147 17.2913 25.2048 17.0974C25.4949 16.9036 25.721 16.628 25.8545 16.3057C25.9881 15.9833 26.023 15.6286 25.9549 15.2864C25.8868 14.9442 25.7188 14.6298 25.4721 14.3831C25.2254 14.1364 24.911 13.9684 24.5688 13.9003C24.2266 13.8322 23.8719 13.8672 23.5495 14.0007C23.2272 14.1342 22.9517 14.3603 22.7578 14.6504C22.564 14.9406 22.4605 15.2816 22.4605 15.6306C22.4605 16.0984 22.6464 16.5472 22.9772 16.878Z" fill="#E6E6E6" stroke="#E6E6E6"/>
<mask id="path-2-inside-1_381_392" fill="white">
<path d="M20.0971 2.64755C23.4343 2.6463 26.6969 3.63481 29.4721 5.48806C32.2474 7.3413 34.4107 9.97601 35.6883 13.0589C36.966 16.1418 37.3006 19.5344 36.6498 22.8075C35.9991 26.0805 34.3922 29.0871 32.0325 31.4468C29.6728 33.8066 26.6662 35.4134 23.3931 36.0642C20.12 36.7149 16.7275 36.3803 13.6446 35.1026C10.5617 33.825 7.92697 31.6617 6.07373 28.8864C4.22048 26.1112 3.23197 22.8486 3.23322 19.5115C3.23824 15.0404 5.01658 10.7539 8.17809 7.59242C11.3396 4.4309 15.6261 2.65256 20.0971 2.64755ZM20.0971 0.195068C16.2752 0.195069 12.5391 1.32849 9.36135 3.45197C6.18361 5.57546 3.70697 8.59363 2.24467 12.1248C0.782365 15.6559 0.400083 19.5414 1.14617 23.2898C1.89225 27.0382 3.73319 30.4812 6.43615 33.1832C9.13911 35.8853 12.5827 37.7251 16.3313 38.47C20.08 39.2149 23.9653 38.8313 27.496 37.3678C31.0267 35.9044 34.044 33.4267 36.1665 30.2483C38.2889 27.0699 39.4211 23.3334 39.4198 19.5115C39.4182 14.3879 37.3817 9.47467 33.7581 5.85233C30.1346 2.22998 25.2207 0.195068 20.0971 0.195068Z"/>
</mask>
<path d="M20.0971 2.64755C23.4343 2.6463 26.6969 3.63481 29.4721 5.48806C32.2474 7.3413 34.4107 9.97601 35.6883 13.0589C36.966 16.1418 37.3006 19.5344 36.6498 22.8075C35.9991 26.0805 34.3922 29.0871 32.0325 31.4468C29.6728 33.8066 26.6662 35.4134 23.3931 36.0642C20.12 36.7149 16.7275 36.3803 13.6446 35.1026C10.5617 33.825 7.92697 31.6617 6.07373 28.8864C4.22048 26.1112 3.23197 22.8486 3.23322 19.5115C3.23824 15.0404 5.01658 10.7539 8.17809 7.59242C11.3396 4.4309 15.6261 2.65256 20.0971 2.64755ZM20.0971 0.195068C16.2752 0.195069 12.5391 1.32849 9.36135 3.45197C6.18361 5.57546 3.70697 8.59363 2.24467 12.1248C0.782365 15.6559 0.400083 19.5414 1.14617 23.2898C1.89225 27.0382 3.73319 30.4812 6.43615 33.1832C9.13911 35.8853 12.5827 37.7251 16.3313 38.47C20.08 39.2149 23.9653 38.8313 27.496 37.3678C31.0267 35.9044 34.044 33.4267 36.1665 30.2483C38.2889 27.0699 39.4211 23.3334 39.4198 19.5115C39.4182 14.3879 37.3817 9.47467 33.7581 5.85233C30.1346 2.22998 25.2207 0.195068 20.0971 0.195068Z" fill="#E6E6E6"/>
<path d="M3.23322 19.5115L2.23322 19.5103L2.23322 19.5111L3.23322 19.5115ZM39.4198 19.5115L40.4198 19.5111L39.4198 19.5115ZM20.0975 3.64755C23.2369 3.64637 26.306 4.57629 28.9168 6.31968L30.0275 4.65643C27.0877 2.69333 23.6317 1.64622 20.0968 1.64755L20.0975 3.64755ZM28.9168 6.31968C31.5275 8.06307 33.5626 10.5416 34.7645 13.4418L36.6121 12.676C35.2587 9.41041 32.9672 6.61953 30.0275 4.65643L28.9168 6.31968ZM34.7645 13.4418C35.9664 16.3419 36.2812 19.5334 35.669 22.6125L37.6306 23.0025C38.32 19.5353 37.9655 15.9417 36.6121 12.676L34.7645 13.4418ZM35.669 22.6125C35.0569 25.6915 33.5453 28.5199 31.3254 30.7397L32.7396 32.154C35.2392 29.6544 36.9413 26.4696 37.6306 23.0025L35.669 22.6125ZM31.3254 30.7397C29.1056 32.9596 26.2772 34.4712 23.1981 35.0834L23.5881 37.045C27.0552 36.3557 30.24 34.6536 32.7396 32.154L31.3254 30.7397ZM23.1981 35.0834C20.1191 35.6955 16.9276 35.3808 14.0274 34.1788L13.2617 36.0264C16.5274 37.3798 20.121 37.7343 23.5881 37.045L23.1981 35.0834ZM14.0274 34.1788C11.1273 32.9769 8.64875 30.9419 6.90535 28.3311L5.2421 29.4418C7.2052 32.3816 9.99609 34.6731 13.2617 36.0264L14.0274 34.1788ZM6.90535 28.3311C5.16196 25.7204 4.23204 22.6512 4.23322 19.5118L2.23322 19.5111C2.23189 23.0461 3.279 26.502 5.2421 29.4418L6.90535 28.3311ZM4.23322 19.5126C4.23794 15.3064 5.91094 11.2738 8.88519 8.29952L7.47098 6.88531C4.12221 10.2341 2.23853 14.7745 2.23322 19.5103L4.23322 19.5126ZM8.88519 8.29952C11.8594 5.32527 15.892 3.65227 20.0983 3.64755L20.096 1.64755C15.3601 1.65286 10.8198 3.53654 7.47098 6.88531L8.88519 8.29952ZM20.0971 -0.804932C16.0774 -0.804931 12.1479 0.387145 8.80575 2.62053L9.91696 4.28342C12.9302 2.26983 16.473 1.19507 20.0971 1.19507V-0.804932ZM8.80575 2.62053C5.46355 4.85391 2.85874 8.02828 1.32076 11.7422L3.16858 12.5074C4.55521 9.15898 6.90367 6.29701 9.91696 4.28342L8.80575 2.62053ZM1.32076 11.7422C-0.217224 15.456 -0.61929 19.5426 0.165405 23.485L2.12693 23.0946C1.41946 19.5401 1.78195 15.8558 3.16858 12.5074L1.32076 11.7422ZM0.165405 23.485C0.950101 27.4274 2.88631 31.0485 5.72916 33.8905L7.14314 32.476C4.58006 29.9138 2.8344 26.649 2.12693 23.0946L0.165405 23.485ZM5.72916 33.8905C8.57201 36.7324 12.1938 38.6674 16.1364 39.4508L16.5262 37.4892C12.9716 36.7829 9.70622 35.0383 7.14314 32.476L5.72916 33.8905ZM16.1364 39.4508C20.0791 40.2342 24.1655 39.8308 27.8789 38.2916L27.1131 36.444C23.7652 37.8318 20.0809 38.1955 16.5262 37.4892L16.1364 39.4508ZM27.8789 38.2916C31.5923 36.7524 34.7658 34.1466 36.9981 30.8036L35.3348 29.693C33.3222 32.7069 30.461 35.0563 27.1131 36.444L27.8789 38.2916ZM36.9981 30.8036C39.2304 27.4607 40.4212 23.5309 40.4198 19.5111L38.4198 19.5118C38.421 23.1359 37.3474 26.679 35.3348 29.693L36.9981 30.8036ZM40.4198 19.5111C40.4181 14.1224 38.2762 8.95492 34.4651 5.1451L33.0511 6.55955C36.4871 9.99443 38.4183 14.6533 38.4198 19.5118L40.4198 19.5111ZM34.4651 5.1451C30.6541 1.33529 25.4859 -0.804932 20.0971 -0.804932V1.19507C24.9556 1.19507 29.6151 3.12467 33.0511 6.55955L34.4651 5.1451Z" fill="#E6E6E6" mask="url(#path-2-inside-1_381_392)"/>
</svg>
