<svg width="402" height="75" viewBox="0 0 402 75" fill="none" xmlns="http://www.w3.org/2000/svg">
<path d="M30.25 32.75C28.25 31.75 25.75 31.25 22.75 31C20 30.75 18.25 30.25 17.25 29C16 27.75 15.25 26 15.25 24.25C15.5 22.5 16.25 21 17.5 19.5C18.75 18.25 20.5 17.5 22.25 17.5C24.25 17.5 25.75 18.25 27.25 19.5C28.5 20.75 29.25 22.5 29.25 24.25V25H35V24.5C35 21 33.75 18 31.25 15.5C28.75 13 25.75 11.75 22.25 11.75C18.75 11.75 15.75 13 13.5 15.5C11 18 9.75 21 9.75 24.5C9.75 28 11 31 13.5 33.5C13.5 33.5 13.75 33.75 14 33.75L14.25 34C16 35.5 19 36.5 23.25 36.75C27.25 37 31 38.75 34 41.75C37.25 45 38.75 48.75 38.75 53.25C38.75 57.75 37 61.5 33.75 64.75C30.5 68 26.75 69.5 22 69.5C17.5 69.5 13.75 68 10.5 64.75C7.25 61.75 5.5 58 5.5 53.5V52.75H0V53.5C0.25 59.5 2.5 64.75 6.75 68.75C11 73 16.25 75 22.5 75C28.5 75 34 72.75 38.25 68.5C42.5 64.25 44.75 59 44.75 53C44.75 48.5 43.5 44.25 40.75 40.5C38 37 34.5 34.25 30.25 32.75Z" fill="#E6E6E6"/>
<path d="M103.5 21.5C97.9995 15.25 91.4995 12.25 83.7495 12.25C75.9995 12.25 69.4995 15.25 63.9995 21.5C62.9995 22.5 61.9995 23.75 61.2495 25V0H55.7495V74.25H61.4995V43.5C61.4995 36.5 63.9995 30.5 68.2495 25.75C72.4995 21 77.9995 18.5 83.9995 18.5C89.9995 18.5 95.2495 21 99.7495 25.75C104 30.75 106.25 36.75 106.5 43.75V74.25H112.25V43.75C111.5 35.25 108.75 27.75 103.5 21.5Z" fill="#E6E6E6"/>
<path d="M154.25 12C145.5 12 138 15 132 21.25C126 27.25 122.75 34.75 122.75 43.5C122.75 52.25 125.75 59.75 132 65.75C138.25 72 145.75 75 154.25 75C163 75 170.5 72 176.5 65.75C182.75 59.5 185.75 52 185.75 43.5C185.75 34.75 182.75 27.25 176.5 21.25C170.25 15 162.75 12 154.25 12ZM179.75 43.5C179.75 50.5 177.25 56.75 172.25 61.75C167.25 66.75 161 69.25 154 69.25C147 69.25 140.75 66.75 135.75 61.75C130.75 56.75 128.25 50.5 128.25 43.5C128.25 36.5 130.75 30.25 135.75 25.25C140.75 20.25 147 17.75 154 17.75C161 17.75 167.25 20.25 172.25 25.25C177.25 30.25 179.75 36.5 179.75 43.5Z" fill="#E6E6E6"/>
<path d="M226.5 11.75C218.25 11.75 211.25 14.75 205.25 20.5C199.5 26.25 196.5 33.5 196.5 41.75V74.25H202.5V41.75C202.5 35 204.75 29.5 209.5 24.75C214.25 20 220 17.75 226.5 17.75C227.5 17.75 228.25 17.75 229 17.75H229.75V12H229C228.5 11.75 227.5 11.75 226.5 11.75Z" fill="#E6E6E6"/>
<path d="M305.5 12.25C301 12.25 296.5 13.5 292.75 16C289.25 18.25 286.75 21 285 24.5C283.25 21 280.5 18.25 277.25 16C273.5 13.5 269 12.25 264.5 12.25C258.25 12.25 252.75 14.5 248 19C243.5 23.5 241 29 241 35.25V74.5H246.75V35.25C246.75 30.5 248.5 26.25 252 23C255.5 19.5 259.5 18 264.5 18C269.25 18 273.5 19.75 277 23C280.5 26.25 282.25 30.5 282.25 35.25V74.5H288V35.5C288 30.75 289.75 26.5 293.25 23.25C296.75 19.75 300.75 18.25 305.75 18.25C310.75 18.25 314.75 20 318.25 23.25C321.75 26.5 323.5 30.75 323.5 35.5V74.75H329V35.25C329 29 326.75 23.5 322 19C317.5 14.5 312 12.25 305.5 12.25Z" fill="#E6E6E6"/>
<path d="M395.75 52C394.5 55.5 392.5 58.75 389.5 61.75C384.5 66.75 378.25 69.25 371.25 69.25C364.25 69.25 358 66.75 353 61.75C348 56.75 345.5 50.5 345.5 43.5C345.5 41 345.75 38.5 346.5 36.25H402L401.75 35.25C400.5 30 397.75 25.25 393.5 21.25C387.5 15 380 12 371.5 12C363 12 355.25 15 349.25 21.25C343.25 27.25 340 34.75 340 43.5C340 52.25 343 59.75 349.25 65.75C355.5 72 363 75 371.5 75C380.25 75 387.75 72 393.75 65.75C397.75 61.75 400.25 57.5 401.75 52.5L402 51.5H396L395.75 52ZM371.25 17.75C378.25 17.75 384.5 20.25 389.5 25.25C391.25 27 392.5 28.75 393.75 30.75H349C350 28.75 351.5 27 353.25 25.25C358.25 20.25 364.25 17.75 371.25 17.75Z" fill="#E6E6E6"/>
</svg>
