<svg width="250" height="47" viewBox="0 0 250 47" fill="none" xmlns="http://www.w3.org/2000/svg">
<path d="M18.8122 20.367C17.5684 19.7451 16.0137 19.4341 14.148 19.2786C12.4378 19.1232 11.3495 18.8122 10.7276 18.0349C9.95025 17.2575 9.48383 16.1692 9.48383 15.0809C9.6393 13.9926 10.1057 13.0597 10.8831 12.1269C11.6604 11.3495 12.7488 10.8831 13.8371 10.8831C15.0808 10.8831 16.0137 11.3495 16.9465 12.1269C17.7239 12.9043 18.1903 13.9926 18.1903 15.0809V15.5473H21.7662V15.2364C21.7662 13.0597 20.9888 11.1941 19.4341 9.63934C17.8794 8.08461 16.0137 7.30725 13.8371 7.30725C11.6604 7.30725 9.79478 8.08461 8.39552 9.63934C6.8408 11.1941 6.06343 13.0597 6.06343 15.2364C6.06343 17.413 6.8408 19.2786 8.39552 20.8334C8.39552 20.8334 8.55099 20.9888 8.70647 20.9888L8.86194 21.1443C9.95025 22.0772 11.8159 22.699 14.459 22.8545C16.9465 23.01 19.2786 24.0983 21.1443 25.964C23.1654 27.9851 24.0983 30.3172 24.0983 33.1157C24.0983 35.9142 23.01 38.2463 20.9888 40.2675C18.9677 42.2886 16.6356 43.2214 13.6816 43.2214C10.8831 43.2214 8.55099 42.2886 6.52985 40.2675C4.50871 38.4018 3.4204 36.0697 3.4204 33.2712V32.8048H0V33.2712C0.155473 37.0025 1.55473 40.2674 4.19776 42.755C6.8408 45.398 10.1057 46.6418 13.9925 46.6418C17.7239 46.6418 21.1443 45.2426 23.7873 42.5995C26.4303 39.9565 27.8296 36.6916 27.8296 32.9602C27.8296 30.1617 27.0522 27.5187 25.342 25.1866C23.6318 23.01 21.4552 21.2998 18.8122 20.367Z" fill="black"/>
<path d="M64.3652 13.3706C60.9448 9.48383 56.9025 7.61816 52.0829 7.61816C47.2632 7.61816 43.2209 9.48383 39.8005 13.3706C39.1786 13.9925 38.5567 14.7699 38.0903 15.5473V0H34.6699V46.1754H38.2458V27.0522C38.2458 22.699 39.8005 18.9677 42.4436 16.0137C45.0866 13.0597 48.507 11.505 52.2383 11.505C55.9697 11.505 59.2346 13.0597 62.0331 16.0137C64.6761 19.1231 66.0754 22.8545 66.2309 27.2077V46.1754H69.8067V27.2077C69.3403 21.9216 67.6301 17.2575 64.3652 13.3706Z" fill="black"/>
<path d="M95.927 7.46265C90.4854 7.46265 85.8212 9.32832 82.0899 13.2151C78.3585 16.9465 76.3374 21.6107 76.3374 27.0522C76.3374 32.4937 78.2031 37.1579 82.0899 40.8893C85.9767 44.7761 90.6409 46.6418 95.927 46.6418C101.368 46.6418 106.033 44.7761 109.764 40.8893C113.651 37.0024 115.517 32.3383 115.517 27.0522C115.517 21.6107 113.651 16.9465 109.764 13.2151C105.877 9.32832 101.213 7.46265 95.927 7.46265ZM111.785 27.0522C111.785 31.4054 110.23 35.2922 107.121 38.4017C104.012 41.5112 100.125 43.0659 95.7715 43.0659C91.4182 43.0659 87.5314 41.5112 84.422 38.4017C81.3125 35.2922 79.7578 31.4054 79.7578 27.0522C79.7578 22.699 81.3125 18.8121 84.422 15.7027C87.5314 12.5932 91.4182 11.0385 95.7715 11.0385C100.125 11.0385 104.012 12.5932 107.121 15.7027C110.23 18.8121 111.785 22.699 111.785 27.0522Z" fill="black"/>
<path d="M140.858 7.30725C135.728 7.30725 131.375 9.17292 127.643 12.7488C124.067 16.3247 122.202 20.8334 122.202 25.964V46.1754H125.933V25.964C125.933 21.7662 127.332 18.3458 130.286 15.3918C133.24 12.4378 136.816 11.0386 140.858 11.0386C141.48 11.0386 141.947 11.0386 142.413 11.0386H142.88V7.46272H142.413C142.102 7.30725 141.48 7.30725 140.858 7.30725Z" fill="black"/>
<path d="M189.987 7.61823C187.189 7.61823 184.39 8.39559 182.058 9.95031C179.882 11.3496 178.327 13.0598 177.239 15.2364C176.15 13.0598 174.44 11.3496 172.419 9.95031C170.087 8.39559 167.288 7.61823 164.49 7.61823C160.603 7.61823 157.183 9.01748 154.229 11.816C151.43 14.6145 149.875 18.0349 149.875 21.9217V46.3309H153.451V21.9217C153.451 18.9677 154.54 16.3247 156.716 14.3035C158.893 12.1269 161.38 11.1941 164.49 11.1941C167.444 11.1941 170.087 12.2824 172.264 14.3035C174.44 16.3247 175.528 18.9677 175.528 21.9217V46.3309H179.104V22.0772C179.104 19.1232 180.193 16.4802 182.369 14.459C184.546 12.2824 187.033 11.3496 190.143 11.3496C193.252 11.3496 195.74 12.4379 197.917 14.459C200.093 16.4802 201.181 19.1232 201.181 22.0772V46.4864H204.602V21.9217C204.602 18.0349 203.203 14.6145 200.249 11.816C197.45 9.01748 194.03 7.61823 189.987 7.61823Z" fill="black"/>
<path d="M246.113 32.3383C245.336 34.5149 244.092 36.536 242.226 38.4017C239.117 41.5112 235.23 43.0659 230.877 43.0659C226.524 43.0659 222.637 41.5112 219.527 38.4017C216.418 35.2922 214.863 31.4054 214.863 27.0522C214.863 25.4975 215.019 23.9427 215.485 22.5435H250L249.845 21.9216C249.067 18.6567 247.357 15.7027 244.714 13.2151C240.983 9.32832 236.319 7.46265 231.032 7.46265C225.746 7.46265 220.927 9.32832 217.195 13.2151C213.464 16.9465 211.443 21.6107 211.443 27.0522C211.443 32.4937 213.309 37.1579 217.195 40.8893C221.082 44.7761 225.746 46.6418 231.032 46.6418C236.474 46.6418 241.138 44.7761 244.869 40.8893C247.357 38.4017 248.912 35.7587 249.845 32.6492L250 32.0273H246.269L246.113 32.3383ZM230.877 11.0385C235.23 11.0385 239.117 12.5932 242.226 15.7027C243.315 16.791 244.092 17.8793 244.869 19.1231H217.04C217.662 17.8793 218.595 16.791 219.683 15.7027C222.792 12.5932 226.524 11.0385 230.877 11.0385Z" fill="black"/>
</svg>
