<svg width="41" height="46" viewBox="0 0 41 46" fill="none" xmlns="http://www.w3.org/2000/svg">
<path d="M38.1014 44.3358C38.0636 44.4191 38.0181 44.4873 37.9878 44.5706C37.8311 45.0491 37.5057 45.4544 37.0723 45.7108C36.6389 45.9672 36.1271 46.0573 35.6322 45.9643C31.4814 45.2775 27.3332 44.5807 23.1875 43.8738C22.6553 43.7907 22.1699 43.5213 21.8179 43.1136C21.4659 42.7059 21.2702 42.1864 21.2657 41.6478C21.2611 41.1092 21.448 40.5865 21.7931 40.1729C22.1382 39.7593 22.6189 39.4818 23.1496 39.3897C23.4709 39.3406 23.7978 39.3406 24.1191 39.3897C26.139 39.723 28.1841 40.0639 30.2544 40.4123L30.7088 40.488L23.8919 30.9519C21.7199 32.0886 19.3173 32.7149 16.8668 32.7832C14.4163 32.8514 11.9825 32.3598 9.75057 31.3458C6.16612 29.8339 3.27012 27.0459 1.62328 23.5214C-0.089368 19.9632 -0.46115 15.9067 0.576178 12.0965C1.61351 8.28622 3.99034 4.97798 7.27036 2.77902C10.5504 0.580064 14.5135 -0.36205 18.4322 0.125623C22.3509 0.613296 25.9622 2.49803 28.6032 5.43385C31.4289 8.61658 32.9152 12.7683 32.7515 17.0213C32.5878 21.2742 30.7866 25.2994 27.7245 28.2554L34.5415 37.7688C34.5415 37.6628 34.6021 37.5189 34.6248 37.3674C34.9732 35.292 35.3141 33.2166 35.6701 31.1412C35.7002 30.5386 35.9685 29.9726 36.4159 29.5678C36.8634 29.1629 37.4533 28.9524 38.056 28.9826C38.6586 29.0127 39.2246 29.281 39.6295 29.7284C40.0343 30.1759 40.2448 30.7658 40.2147 31.3685C40.2147 31.4518 40.2147 31.5351 40.2147 31.626C39.5077 35.8626 38.7983 40.0992 38.0863 44.3358M4.6303 14.5307C4.2444 16.8521 4.55547 19.2358 5.52419 21.3804C6.49291 23.525 8.07577 25.3342 10.0727 26.5793C12.0695 27.8244 14.3908 28.4495 16.7429 28.3755C19.0949 28.3014 21.3723 27.5317 23.2869 26.1634C25.2015 24.7952 26.6675 22.8901 27.4995 20.6888C28.3314 18.4875 28.492 16.0889 27.9608 13.7964C27.4297 11.5039 26.2308 9.42028 24.5156 7.80909C22.8004 6.1979 20.646 5.13145 18.3248 4.74458C16.7829 4.48659 15.2052 4.53516 13.6821 4.88751C12.159 5.23986 10.7203 5.88908 9.44834 6.79802C8.17639 7.70696 7.09615 8.85777 6.26941 10.1846C5.44268 11.5115 4.88569 12.9883 4.6303 14.5307Z" fill="#E6E6E6"/>
</svg>
