<svg width="126" height="126" viewBox="0 0 126 126" fill="none" xmlns="http://www.w3.org/2000/svg">
<path d="M77.465 93.1603C76.3001 93.5381 75.0723 93.7585 73.876 94.0418H70.7277C69.3425 93.6641 67.8943 93.4437 66.572 92.94C64.4548 92.1169 62.5316 90.863 60.9243 89.2577C59.317 87.6525 58.0607 85.7309 57.2349 83.6147C56.4091 81.4985 56.032 79.2338 56.1272 76.9642C56.2225 74.6946 56.7882 72.4695 57.7884 70.43C60.9366 64.1335 64.3997 57.8369 67.7054 51.5404L71.0425 45.2439C71.1181 44.9722 71.2806 44.7327 71.5052 44.5621C71.7298 44.3915 72.0041 44.2991 72.2861 44.2991C72.5681 44.2991 72.8424 44.3915 73.067 44.5621C73.2916 44.7327 73.4541 44.9722 73.5297 45.2439C77.8428 53.4294 82.2503 61.6148 86.5005 69.8633C87.6253 71.9566 88.2828 74.2689 88.4276 76.6409C88.5724 79.0129 88.201 81.388 87.3391 83.6026C86.4773 85.8172 85.1453 87.8185 83.4352 89.4685C81.7251 91.1186 79.6775 92.3781 77.4335 93.1603" fill="#E6E6E6"/>
<path d="M57.4107 51.1626C57.4892 53.2508 56.9283 55.3132 55.8032 57.0741C54.678 58.835 53.0421 60.2105 51.1142 61.0167C49.2375 61.7553 47.181 61.908 45.2157 61.4546C43.2505 61.0012 41.4687 59.963 40.1052 58.4769C38.7418 56.9907 37.8606 55.1263 37.5778 53.1293C37.2951 51.1324 37.624 49.0966 38.5212 47.2903C40.5361 43.3235 42.6454 39.4511 44.8177 35.5473C45.3214 34.6343 45.7622 33.6584 46.3289 32.7768C46.4583 32.5694 46.6282 32.39 46.8283 32.2494C47.0284 32.1088 47.2547 32.0098 47.4937 31.9583C47.7405 31.988 47.9769 32.0745 48.1845 32.2111C48.3921 32.3476 48.5652 32.5305 48.6901 32.7454C51.2716 37.5307 53.8532 42.1901 56.3718 47.1644C57.026 48.4009 57.402 49.7655 57.4737 51.1626" fill="#E6E6E6"/>
<path d="M62.9516 125.934C50.5003 125.931 38.3292 122.237 27.9772 115.318C17.6251 108.399 9.55677 98.5661 4.7922 87.0624C0.0276357 75.5587 -1.21926 62.9007 1.20915 50.6884C3.63756 38.4761 9.63223 27.2581 18.4353 18.4523C30.2501 6.63749 46.2745 -1.24489e-07 62.9831 0C79.6918 1.24489e-07 95.7161 6.63749 107.531 18.4523C119.346 30.2671 125.983 46.2914 125.983 63.0001C125.983 79.7087 119.346 95.733 107.531 107.548C101.68 113.401 94.7289 118.039 87.078 121.194C79.4272 124.35 71.2276 125.96 62.9516 125.934ZM62.9516 5.13518C47.6209 5.16016 32.9253 11.2613 22.0848 22.1018C11.2444 32.9422 5.14321 47.6379 5.11824 62.9686C5.12657 78.3073 11.2214 93.0158 22.0645 103.865C32.9077 114.714 47.6129 120.817 62.9516 120.833C74.4061 120.853 85.6082 117.47 95.1378 111.115C104.667 104.759 112.095 95.7172 116.479 85.1349C120.863 74.5526 122.006 62.9068 119.763 51.6742C117.519 40.4416 111.991 30.128 103.879 22.0413C98.5186 16.6505 92.1398 12.3796 85.1134 9.47722C78.0871 6.57481 70.5537 5.09883 62.9516 5.13518Z" fill="#E6E6E6"/>
</svg>
