<svg width="126" height="126" viewBox="0 0 126 126" fill="none" xmlns="http://www.w3.org/2000/svg">
<path d="M62.9556 125.946C50.5035 125.944 38.3317 122.249 27.9789 115.33C17.6262 108.41 9.55737 98.577 4.79251 87.0725C0.0276374 75.5681 -1.21934 62.9092 1.20923 50.6962C3.63779 38.4832 9.63284 27.2644 18.4365 18.4581C30.2479 6.64252 46.2692 0.00295323 62.976 9.84943e-07C79.6827 -0.00295126 95.7064 6.63095 107.522 18.4423C119.337 30.2537 125.977 46.275 125.98 62.9818C125.983 79.6885 119.349 95.7122 107.538 107.528C101.692 113.391 94.7424 118.038 87.0902 121.199C79.438 124.361 71.2351 125.974 62.9556 125.946ZM62.9556 5.14012C51.507 5.12708 40.312 8.5121 30.7886 14.8664C21.2652 21.2207 13.8419 30.2585 9.45897 40.8349C5.076 51.4114 3.93052 63.0507 6.16763 74.2787C8.40475 85.5067 13.9238 95.8181 22.0257 103.907C32.881 114.762 47.6039 120.861 62.9556 120.861C78.3073 120.861 93.0302 114.762 103.885 103.907C114.741 93.0518 120.839 78.3288 120.839 62.9772C120.839 47.6255 114.741 32.9026 103.885 22.0473C98.5217 16.6604 92.1418 12.3921 85.1158 9.48976C78.0898 6.58747 70.5574 5.10901 62.9556 5.14012Z" fill="#E6E6E6"/>
<path d="M62.9557 93.2653L62.3575 93.0134C59.5747 92.0184 56.8962 90.753 54.3604 89.2353C50.8132 87.1717 47.7098 84.4261 45.2294 81.1567C42.7491 77.8874 40.9408 74.1591 39.909 70.1871C38.663 65.4179 38.0387 60.5076 38.0515 55.5783C38.0515 51.2649 38.0515 46.9201 38.0515 42.6067C38.0515 42.6067 38.0515 42.3548 38.0515 42.1974C42.6276 42.4077 47.1984 41.6781 51.4817 40.0536C55.765 38.4291 59.67 35.9441 62.9557 32.752C66.2374 35.959 70.1463 38.4533 74.4372 40.0786C78.7282 41.704 83.3086 42.4253 87.8914 42.1974V44.8421C88.1013 50.331 88.0278 55.8271 87.6711 61.3085C87.3406 65.6123 86.4188 69.85 84.9319 73.9023C82.9271 79.0727 79.5398 83.5926 75.1402 86.9684C72.3627 89.0541 69.3251 90.7687 66.1042 92.0689L62.9557 93.2653Z" fill="#E6E6E6"/>
</svg>
