<svg width="30" height="30" viewBox="0 0 30 30" fill="none" xmlns="http://www.w3.org/2000/svg">
<path d="M29.9996 1.17882C29.9564 1.35182 29.9204 1.52482 29.8556 1.69783C26.6448 10.8093 23.4341 19.9208 20.2233 29.0396C20.0361 29.5586 19.7482 29.9695 19.1435 29.9983C18.5388 30.0271 18.1716 29.6883 17.9268 29.1621C16.3359 25.7381 14.7377 22.3141 13.1323 18.8972C13.0243 18.6738 13.0603 18.544 13.2331 18.371C14.8889 16.7275 16.5302 15.0768 18.1716 13.4332C18.4884 13.116 18.6755 12.7628 18.5316 12.3015C18.3876 11.8401 18.0708 11.5518 17.6029 11.4293C17.171 11.3211 16.8398 11.5013 16.5374 11.8041C14.9105 13.4332 13.2763 15.0623 11.6565 16.6987C11.4478 16.9077 11.2966 16.951 11.0158 16.814C7.64669 15.2137 4.24877 13.6278 0.843645 12.0492C0.426104 11.8546 0.109348 11.5879 0.0229602 11.1193C-0.0922236 10.5282 0.231731 10.0164 0.865242 9.79294C3.41368 8.89188 5.96933 7.98361 8.51777 7.08255C15.0976 4.75422 21.6847 2.4403 28.2574 0.0903355C29.2653 -0.26288 30.0211 0.486802 29.9996 1.17882Z" fill="#E6E6E6"/>
</svg>
