<svg width="126" height="126" viewBox="0 0 126 126" fill="none" xmlns="http://www.w3.org/2000/svg">
<path d="M62.9833 125.98C50.5257 125.977 38.3485 122.281 27.9912 115.359C17.6339 108.437 9.56158 98.5988 4.79461 87.0893C0.0276496 75.5798 -1.21987 62.9153 1.20976 50.6969C3.63939 38.4785 9.63708 27.2548 18.4446 18.4446C27.2548 9.63708 38.4785 3.63939 50.6969 1.20976C62.9153 -1.21987 75.5798 0.0276496 87.0893 4.79461C98.5988 9.56158 108.437 17.6339 115.359 27.9912C122.281 38.3485 125.977 50.5257 125.98 62.9833C125.98 79.6911 119.343 95.7145 107.529 107.529C95.7145 119.343 79.6911 125.98 62.9833 125.98ZM62.9833 5.12081C47.6449 5.1458 32.9418 11.25 22.0959 22.0959C11.25 32.9418 5.1458 47.6449 5.12081 62.9833C5.12914 78.3297 11.227 93.0457 22.0756 103.9C32.9242 114.755 47.6369 120.861 62.9833 120.877C74.4435 120.897 85.6513 117.512 95.1856 111.154C104.72 104.795 112.151 95.7484 116.538 85.1608C120.924 74.5732 122.067 62.9215 119.823 51.6832C117.579 40.4449 112.048 30.1262 103.931 22.0354C98.5682 16.6419 92.1861 12.3689 85.1562 9.46503C78.1264 6.56116 70.5892 5.08444 62.9833 5.12081Z" fill="#E6E6E6"/>
<path d="M48.2104 33.0914C48.7666 33.3218 49.2566 33.6873 49.6361 34.1548C50.0156 34.6223 50.2725 35.177 50.3838 35.7687C51.4151 40.3713 53.7431 44.5823 57.0923 47.9035C60.4414 51.2248 64.6717 53.5174 69.2828 54.5102C70.7002 54.8882 71.5507 55.6442 71.6766 56.7466C71.7621 57.4152 71.5923 58.0914 71.2011 58.6402C70.8099 59.1891 70.2261 59.5702 69.5663 59.7075C67.4749 60.2818 65.4318 61.019 63.4556 61.9124C60.207 63.4979 57.35 65.7833 55.0898 68.6044C52.8296 71.4255 51.2224 74.7123 50.3838 78.2285C50.2933 79.1695 49.8417 80.0389 49.1238 80.6539C48.7694 80.9031 48.3586 81.0603 47.9283 81.1114C47.4981 81.1624 47.0619 81.1058 46.659 80.9465C46.256 80.7872 45.899 80.5302 45.62 80.1988C45.341 79.8673 45.1487 79.4717 45.0605 79.0475C44.523 77.0081 43.8171 75.0169 42.9501 73.0943C41.3608 69.7822 39.0463 66.8703 36.1781 64.5747C33.31 62.2791 29.9618 60.6586 26.382 59.8335C25.5486 59.717 24.7809 59.3165 24.2086 58.6995C23.9436 58.3641 23.7661 57.9681 23.6918 57.5471C23.6176 57.1261 23.649 56.6933 23.7833 56.2874C23.9175 55.8816 24.1504 55.5154 24.461 55.2217C24.7716 54.928 25.1503 54.716 25.563 54.6047C27.7126 54.0073 29.8176 53.26 31.8627 52.3683C35.1245 50.7767 37.9903 48.4778 40.2516 45.639C42.5128 42.8001 44.1127 39.4928 44.9345 35.9577C45.0103 35.322 45.2547 34.7181 45.6424 34.2086C46.0301 33.6991 46.5469 33.3025 47.1394 33.0599L48.2104 33.0914Z" fill="#E6E6E6"/>
<path d="M102.388 75.9606C102.369 76.6113 102.117 77.2336 101.678 77.7137C101.238 78.1938 100.64 78.4995 99.9939 78.575C97.7557 79.0699 95.6569 80.0601 93.8517 81.4728C90.9613 83.7425 88.9556 86.9516 88.182 90.5443C88.0677 91.2991 87.6602 91.9782 87.048 92.4342C86.6921 92.6849 86.2785 92.8416 85.8457 92.8896C85.413 92.9376 84.9751 92.8754 84.5728 92.7088C84.1706 92.5422 83.8169 92.2767 83.5448 91.9368C83.2726 91.597 83.0908 91.1938 83.0163 90.7648C82.5425 88.7076 81.6762 86.7611 80.4649 85.0321C78.2591 81.7235 74.8834 79.3717 71.0154 78.449C70.4546 78.3804 69.9272 78.1459 69.5006 77.7755C69.0741 77.4051 68.768 76.9157 68.6215 76.3701C68.5338 76.028 68.518 75.6715 68.5752 75.323C68.6324 74.9746 68.7612 74.6418 68.9537 74.3457C69.1461 74.0496 69.398 73.7967 69.6932 73.603C69.9884 73.4093 70.3207 73.2789 70.6689 73.2203C72.7452 72.7451 74.712 71.8793 76.4646 70.6689C79.6094 68.4814 81.849 65.2227 82.7643 61.5029C83.2368 59.676 84.0872 58.794 85.4416 58.7625C86.7961 58.731 87.678 59.6445 88.182 61.5029C88.8765 64.3189 90.3352 66.8885 92.3972 68.9283C94.4592 70.9681 97.0444 72.3988 99.8679 73.0628C101.6 73.5352 102.451 74.3857 102.451 75.7716" fill="#E6E6E6"/>
</svg>
