<svg width="40" height="39" viewBox="0 0 40 39" fill="none" xmlns="http://www.w3.org/2000/svg">
<mask id="path-1-inside-1_381_400" fill="white">
<path d="M20.2167 2.64754C23.5534 2.64754 26.815 3.63697 29.5893 5.49069C32.3636 7.34442 34.5259 9.97919 35.8028 13.0618C37.0797 16.1445 37.4138 19.5365 36.7628 22.809C36.1119 26.0815 34.5051 29.0875 32.1458 31.4468C29.7865 33.8062 26.7805 35.4129 23.508 36.0639C20.2355 36.7148 16.8434 36.3807 13.7608 35.1039C10.6781 33.827 8.04337 31.6647 6.18965 28.8904C4.33592 26.1161 3.3465 22.8544 3.3465 19.5178C3.34985 15.0445 5.12832 10.7555 8.29138 7.59242C11.4544 4.42936 15.7435 2.65089 20.2167 2.64754ZM20.2167 0.195069C16.3948 0.193819 12.6583 1.32601 9.47989 3.44846C6.30146 5.57091 3.82383 8.58827 2.36037 12.1189C0.896913 15.6496 0.513357 19.5349 1.25821 23.2836C2.00307 27.0322 3.84288 30.4758 6.54496 33.1788C9.24704 35.8817 12.69 37.7227 16.4384 38.4688C20.1868 39.2148 24.0723 38.8326 27.6034 37.3703C31.1346 35.9079 34.1527 33.4313 36.2762 30.2536C38.3997 27.0758 39.5331 23.3397 39.5331 19.5178C39.534 16.9806 39.0349 14.4681 38.0646 12.1238C37.0942 9.77948 35.6715 7.64931 33.8777 5.85495C32.084 4.06058 29.9543 2.63718 27.6103 1.66605C25.2663 0.694912 22.7539 0.195069 20.2167 0.195069Z"/>
</mask>
<path d="M20.2167 2.64754C23.5534 2.64754 26.815 3.63697 29.5893 5.49069C32.3636 7.34442 34.5259 9.97919 35.8028 13.0618C37.0797 16.1445 37.4138 19.5365 36.7628 22.809C36.1119 26.0815 34.5051 29.0875 32.1458 31.4468C29.7865 33.8062 26.7805 35.4129 23.508 36.0639C20.2355 36.7148 16.8434 36.3807 13.7608 35.1039C10.6781 33.827 8.04337 31.6647 6.18965 28.8904C4.33592 26.1161 3.3465 22.8544 3.3465 19.5178C3.34985 15.0445 5.12832 10.7555 8.29138 7.59242C11.4544 4.42936 15.7435 2.65089 20.2167 2.64754ZM20.2167 0.195069C16.3948 0.193819 12.6583 1.32601 9.47989 3.44846C6.30146 5.57091 3.82383 8.58827 2.36037 12.1189C0.896913 15.6496 0.513357 19.5349 1.25821 23.2836C2.00307 27.0322 3.84288 30.4758 6.54496 33.1788C9.24704 35.8817 12.69 37.7227 16.4384 38.4688C20.1868 39.2148 24.0723 38.8326 27.6034 37.3703C31.1346 35.9079 34.1527 33.4313 36.2762 30.2536C38.3997 27.0758 39.5331 23.3397 39.5331 19.5178C39.534 16.9806 39.0349 14.4681 38.0646 12.1238C37.0942 9.77948 35.6715 7.64931 33.8777 5.85495C32.084 4.06058 29.9543 2.63718 27.6103 1.66605C25.2663 0.694912 22.7539 0.195069 20.2167 0.195069Z" fill="#E6E6E6"/>
<path d="M3.3465 19.5178L2.3465 19.517V19.5178H3.3465ZM39.5331 19.5178L38.5331 19.5175V19.5178H39.5331ZM20.2167 3.64754C23.3556 3.64754 26.4239 4.57832 29.0338 6.32216L30.1449 4.65922C27.2062 2.69561 23.7511 1.64754 20.2167 1.64754V3.64754ZM29.0338 6.32216C31.6436 8.06601 33.6777 10.5446 34.8789 13.4445L36.7267 12.6791C35.3741 9.41378 33.0837 6.62283 30.1449 4.65922L29.0338 6.32216ZM34.8789 13.4445C36.0801 16.3444 36.3944 19.5354 35.782 22.6139L37.7436 23.0041C38.4331 19.5376 38.0792 15.9445 36.7267 12.6791L34.8789 13.4445ZM35.782 22.6139C35.1697 25.6924 33.6582 28.5202 31.4387 30.7397L32.8529 32.154C35.3521 29.6548 37.0541 26.4706 37.7436 23.0041L35.782 22.6139ZM31.4387 30.7397C29.2192 32.9592 26.3914 34.4707 23.3129 35.0831L23.7031 37.0447C27.1695 36.3551 30.3537 34.6532 32.8529 32.154L31.4387 30.7397ZM23.3129 35.0831C20.2343 35.6954 17.0434 35.3812 14.1435 34.18L13.3781 36.0277C16.6435 37.3803 20.2366 37.7342 23.7031 37.0447L23.3129 35.0831ZM14.1435 34.18C11.2436 32.9788 8.76496 30.9447 7.02112 28.3348L5.35818 29.446C7.32178 32.3847 10.1127 34.6752 13.3781 36.0277L14.1435 34.18ZM7.02112 28.3348C5.27727 25.725 4.3465 22.6566 4.3465 19.5178H2.3465C2.3465 23.0522 3.39457 26.5072 5.35818 29.446L7.02112 28.3348ZM4.3465 19.5185C4.34965 15.3103 6.02278 11.2752 8.99848 8.29953L7.58427 6.88531C4.23386 10.2357 2.35005 14.7788 2.3465 19.517L4.3465 19.5185ZM8.99848 8.29953C11.9742 5.32382 16.0092 3.65069 20.2175 3.64754L20.216 1.64754C15.4778 1.65109 10.9347 3.5349 7.58427 6.88531L8.99848 8.29953ZM20.2171 -0.804931C16.1973 -0.806245 12.2675 0.384543 8.92456 2.61683L10.0352 4.28009C13.0492 2.26748 16.5923 1.19388 20.2164 1.19507L20.2171 -0.804931ZM8.92456 2.61683C5.58163 4.84912 2.97579 8.02264 1.43659 11.736L3.28416 12.5018C4.67188 9.1539 7.02128 6.29269 10.0352 4.28009L8.92456 2.61683ZM1.43659 11.736C-0.10261 15.4494 -0.506016 19.5358 0.277389 23.4785L2.23904 23.0887C1.53273 19.534 1.89644 15.8498 3.28416 12.5018L1.43659 11.736ZM0.277389 23.4785C1.06079 27.4211 2.99582 31.0429 5.83774 33.8858L7.25218 32.4718C4.68994 29.9087 2.94535 26.6433 2.23904 23.0887L0.277389 23.4785ZM5.83774 33.8858C8.67966 36.7286 12.3008 38.6648 16.2432 39.4495L16.6336 37.488C13.0792 36.7805 9.81442 35.0349 7.25218 32.4718L5.83774 33.8858ZM16.2432 39.4495C20.1856 40.2342 24.2722 39.8321 27.986 38.2942L27.2208 36.4463C23.8724 37.833 20.1881 38.1955 16.6336 37.488L16.2432 39.4495ZM27.986 38.2942C31.6999 36.7562 34.8743 34.1514 37.1077 30.8092L35.4448 29.698C33.4312 32.7112 30.5692 35.0597 27.2208 36.4463L27.986 38.2942ZM37.1077 30.8092C39.3411 27.467 40.5331 23.5375 40.5331 19.5178H38.5331C38.5331 23.1419 37.4584 26.6847 35.4448 29.698L37.1077 30.8092ZM40.5331 19.5181C40.534 16.8496 40.0092 14.207 38.9885 11.7413L37.1406 12.5062C38.0607 14.7292 38.5339 17.1116 38.5331 19.5175L40.5331 19.5181ZM38.9885 11.7413C37.9679 9.27566 36.4716 7.03521 34.585 5.14795L33.1705 6.56194C34.8714 8.26341 36.2205 10.2833 37.1406 12.5062L38.9885 11.7413ZM34.585 5.14795C32.6983 3.2607 30.4584 1.76361 27.993 0.742199L27.2275 2.5899C29.4501 3.51075 31.4696 4.86047 33.1705 6.56194L34.585 5.14795ZM27.993 0.742199C25.5277 -0.279211 22.8853 -0.804931 20.2167 -0.804931V1.19507C22.6226 1.19507 25.0049 1.66904 27.2275 2.5899L27.993 0.742199Z" fill="#E6E6E6" mask="url(#path-1-inside-1_381_400)"/>
<mask id="path-3-inside-2_381_400" fill="white">
<path d="M28.8954 14.8847V15.0743C28.8497 15.143 28.7967 15.2066 28.7373 15.2639C28.2696 15.6368 27.8019 16.0098 27.3404 16.389C27.2811 16.441 27.2428 16.513 27.233 16.5913C27.1951 17.1033 27.1824 17.6153 27.1318 18.1272C27.0255 19.3897 26.6756 20.6197 26.1016 21.7491C25.3185 23.2544 24.1035 24.4914 22.6125 25.3014C21.7173 25.7819 20.7309 26.0683 19.7175 26.142C18.556 26.2669 17.3817 26.1877 16.2474 25.9082C15.1575 25.6684 14.1396 25.1746 13.2766 24.467C13.1755 24.3849 13.087 24.2837 12.9796 24.2079C12.9109 24.1715 12.8549 24.1152 12.8188 24.0464C12.7827 23.9776 12.7682 23.8995 12.7773 23.8223C12.8066 23.7441 12.8581 23.6762 12.9255 23.6268C12.9929 23.5774 13.0731 23.5487 13.1565 23.5442L14.762 23.481C15.213 23.4504 15.6544 23.3368 16.0641 23.146C15.9946 23.0954 15.9377 23.0512 15.8745 23.0132C15.2064 22.5683 14.5877 22.0534 14.0288 21.4773C13.9575 21.4266 13.9052 21.3535 13.8803 21.2697C13.8554 21.1858 13.8592 21.096 13.8912 21.0146C13.9232 20.9332 13.9815 20.8648 14.0568 20.8204C14.1321 20.7759 14.2202 20.758 14.3069 20.7693C14.5471 20.7693 14.7873 20.7693 15.0591 20.7188C14.9959 20.6303 14.958 20.5671 14.9137 20.5102C14.3314 19.7341 13.8553 18.8839 13.4979 17.9819C13.4579 17.9232 13.4366 17.8538 13.4366 17.7828C13.4366 17.7117 13.4579 17.6424 13.4979 17.5837C13.5451 17.5175 13.6124 17.4682 13.6898 17.4432C13.7672 17.4181 13.8506 17.4186 13.9277 17.4446L14.3638 17.5647C14.288 17.3624 14.2248 17.1918 14.1742 17.0148C13.8851 16.0769 13.8372 15.0812 14.0351 14.1199C14.0731 13.9555 14.1173 13.8038 14.2943 13.7469C14.3759 13.7238 14.4624 13.724 14.5439 13.7475C14.6255 13.771 14.6988 13.8167 14.7557 13.8797C15.9078 14.9703 17.3271 15.7377 18.8705 16.1046C19.313 16.2184 19.7618 16.3069 20.2358 16.4206C20.2232 16.1785 20.2232 15.9359 20.2358 15.6937C20.3461 14.8683 20.7644 14.1151 21.4068 13.5852C22.0493 13.0553 22.8683 12.7879 23.6996 12.8367C24.4189 12.8683 25.0982 13.1762 25.5959 13.6964C25.6073 13.7142 25.6222 13.7294 25.6398 13.7411C25.6574 13.7528 25.6773 13.7607 25.6981 13.7642C25.7189 13.7678 25.7403 13.767 25.7608 13.7618C25.7813 13.7567 25.8005 13.7473 25.8171 13.7343C26.3358 13.4894 26.8949 13.3416 27.4669 13.2981C27.531 13.2896 27.5962 13.2995 27.6549 13.3266C27.7136 13.3537 27.7634 13.3969 27.7985 13.4512C27.8336 13.5055 27.8525 13.5687 27.8531 13.6333C27.8537 13.698 27.8359 13.7615 27.8019 13.8165C27.745 13.9302 27.6754 14.044 27.6122 14.1578L27.233 14.7899L28.3328 14.5876C28.7057 14.556 28.7563 14.6002 28.8954 14.8847Z"/>
</mask>
<path d="M28.8954 14.8847V15.0743C28.8497 15.143 28.7967 15.2066 28.7373 15.2639C28.2696 15.6368 27.8019 16.0098 27.3404 16.389C27.2811 16.441 27.2428 16.513 27.233 16.5913C27.1951 17.1033 27.1824 17.6153 27.1318 18.1272C27.0255 19.3897 26.6756 20.6197 26.1016 21.7491C25.3185 23.2544 24.1035 24.4914 22.6125 25.3014C21.7173 25.7819 20.7309 26.0683 19.7175 26.142C18.556 26.2669 17.3817 26.1877 16.2474 25.9082C15.1575 25.6684 14.1396 25.1746 13.2766 24.467C13.1755 24.3849 13.087 24.2837 12.9796 24.2079C12.9109 24.1715 12.8549 24.1152 12.8188 24.0464C12.7827 23.9776 12.7682 23.8995 12.7773 23.8223C12.8066 23.7441 12.8581 23.6762 12.9255 23.6268C12.9929 23.5774 13.0731 23.5487 13.1565 23.5442L14.762 23.481C15.213 23.4504 15.6544 23.3368 16.0641 23.146C15.9946 23.0954 15.9377 23.0512 15.8745 23.0132C15.2064 22.5683 14.5877 22.0534 14.0288 21.4773C13.9575 21.4266 13.9052 21.3535 13.8803 21.2697C13.8554 21.1858 13.8592 21.096 13.8912 21.0146C13.9232 20.9332 13.9815 20.8648 14.0568 20.8204C14.1321 20.7759 14.2202 20.758 14.3069 20.7693C14.5471 20.7693 14.7873 20.7693 15.0591 20.7188C14.9959 20.6303 14.958 20.5671 14.9137 20.5102C14.3314 19.7341 13.8553 18.8839 13.4979 17.9819C13.4579 17.9232 13.4366 17.8538 13.4366 17.7828C13.4366 17.7117 13.4579 17.6424 13.4979 17.5837C13.5451 17.5175 13.6124 17.4682 13.6898 17.4432C13.7672 17.4181 13.8506 17.4186 13.9277 17.4446L14.3638 17.5647C14.288 17.3624 14.2248 17.1918 14.1742 17.0148C13.8851 16.0769 13.8372 15.0812 14.0351 14.1199C14.0731 13.9555 14.1173 13.8038 14.2943 13.7469C14.3759 13.7238 14.4624 13.724 14.5439 13.7475C14.6255 13.771 14.6988 13.8167 14.7557 13.8797C15.9078 14.9703 17.3271 15.7377 18.8705 16.1046C19.313 16.2184 19.7618 16.3069 20.2358 16.4206C20.2232 16.1785 20.2232 15.9359 20.2358 15.6937C20.3461 14.8683 20.7644 14.1151 21.4068 13.5852C22.0493 13.0553 22.8683 12.7879 23.6996 12.8367C24.4189 12.8683 25.0982 13.1762 25.5959 13.6964C25.6073 13.7142 25.6222 13.7294 25.6398 13.7411C25.6574 13.7528 25.6773 13.7607 25.6981 13.7642C25.7189 13.7678 25.7403 13.767 25.7608 13.7618C25.7813 13.7567 25.8005 13.7473 25.8171 13.7343C26.3358 13.4894 26.8949 13.3416 27.4669 13.2981C27.531 13.2896 27.5962 13.2995 27.6549 13.3266C27.7136 13.3537 27.7634 13.3969 27.7985 13.4512C27.8336 13.5055 27.8525 13.5687 27.8531 13.6333C27.8537 13.698 27.8359 13.7615 27.8019 13.8165C27.745 13.9302 27.6754 14.044 27.6122 14.1578L27.233 14.7899L28.3328 14.5876C28.7057 14.556 28.7563 14.6002 28.8954 14.8847Z" fill="#E6E6E6"/>
<path d="M28.8954 14.8847H29.8954V14.6533L29.7937 14.4455L28.8954 14.8847ZM28.8954 15.0743L29.7282 15.6279L29.8954 15.3763V15.0743H28.8954ZM28.7373 15.2639L29.3607 16.0458L29.3979 16.0162L29.432 15.9832L28.7373 15.2639ZM27.3404 16.389L26.7055 15.6165L26.6934 15.6264L26.6816 15.6367L27.3404 16.389ZM27.233 16.5913L26.2408 16.4665L26.2376 16.4919L26.2357 16.5174L27.233 16.5913ZM27.1318 18.1272L26.1367 18.029L26.136 18.0361L26.1354 18.0433L27.1318 18.1272ZM26.1016 21.7491L26.9887 22.2106L26.993 22.2022L26.1016 21.7491ZM22.6125 25.3014L23.0854 26.1825L23.0898 26.1801L22.6125 25.3014ZM19.7175 26.142L19.645 25.1447L19.6278 25.1459L19.6107 25.1478L19.7175 26.142ZM16.2474 25.9082L16.4867 24.9372L16.4745 24.9342L16.4622 24.9315L16.2474 25.9082ZM13.2766 24.467L13.9107 23.6937L13.9072 23.6909L13.2766 24.467ZM12.9796 24.2079L13.5562 23.3909L13.5043 23.3542L13.4481 23.3245L12.9796 24.2079ZM12.7773 23.8223L11.8411 23.4708L11.7983 23.5848L11.7841 23.7057L12.7773 23.8223ZM13.1565 23.5442L13.1172 22.545L13.1099 22.5452L13.1027 22.5456L13.1565 23.5442ZM14.762 23.481L14.8014 24.4802L14.8155 24.4796L14.8297 24.4787L14.762 23.481ZM16.0641 23.146L16.4863 24.0525L18.0252 23.3357L16.6523 22.3372L16.0641 23.146ZM15.8745 23.0132L15.3202 23.8456L15.3398 23.8586L15.36 23.8707L15.8745 23.0132ZM14.0288 21.4773L14.7466 20.781L14.6829 20.7153L14.6083 20.6623L14.0288 21.4773ZM14.3069 20.7693L14.1768 21.7608L14.2416 21.7693H14.3069V20.7693ZM15.0591 20.7188L15.242 21.7019L16.7852 21.4148L15.8728 20.1375L15.0591 20.7188ZM14.9137 20.5102L14.1138 21.1103L14.119 21.1173L14.1244 21.1241L14.9137 20.5102ZM13.4979 17.9819L14.4275 17.6135L14.3868 17.5107L14.3247 17.4194L13.4979 17.9819ZM13.4979 17.5837L12.6839 17.0027L12.6774 17.0119L12.6711 17.0212L13.4979 17.5837ZM13.9277 17.4446L13.6083 18.3922L13.635 18.4012L13.6622 18.4087L13.9277 17.4446ZM14.3638 17.5647L14.0983 18.5288L15.9885 19.0493L15.3001 17.2136L14.3638 17.5647ZM14.1742 17.0148L15.1357 16.7401L15.1329 16.7301L15.1298 16.7202L14.1742 17.0148ZM14.0351 14.1199L13.0607 13.895L13.0581 13.9066L13.0557 13.9182L14.0351 14.1199ZM14.2943 13.7469L14.0222 12.7847L14.0051 12.7895L13.9883 12.7949L14.2943 13.7469ZM14.7557 13.8797L14.0139 14.5503L14.04 14.5791L14.0682 14.6059L14.7557 13.8797ZM18.8705 16.1046L19.1196 15.1361L19.1107 15.1338L19.1018 15.1317L18.8705 16.1046ZM20.2358 16.4206L20.0025 17.393L21.3045 17.7055L21.2345 16.3684L20.2358 16.4206ZM20.2358 15.6937L19.2446 15.5614L19.2393 15.6013L19.2372 15.6415L20.2358 15.6937ZM23.6996 12.8367L23.641 13.835L23.6484 13.8354L23.6559 13.8358L23.6996 12.8367ZM25.5959 13.6964L26.4387 13.1582L26.3861 13.0757L26.3184 13.005L25.5959 13.6964ZM25.8171 13.7343L25.3901 12.83L25.2894 12.8776L25.2016 12.9461L25.8171 13.7343ZM27.4669 13.2981L27.5425 14.2953L27.5707 14.2931L27.5986 14.2894L27.4669 13.2981ZM27.8019 13.8165L26.9521 13.2892L26.9279 13.3282L26.9074 13.3692L27.8019 13.8165ZM27.6122 14.1578L28.4697 14.6723L28.4783 14.658L28.4864 14.6434L27.6122 14.1578ZM27.233 14.7899L26.3755 14.2754L25.2364 16.1738L27.4139 15.7734L27.233 14.7899ZM28.3328 14.5876L28.2484 13.5912L28.1998 13.5953L28.1519 13.6041L28.3328 14.5876ZM27.8954 14.8847V15.0743H29.8954V14.8847H27.8954ZM28.0626 14.5207C28.0568 14.5294 28.0501 14.5374 28.0427 14.5446L29.432 15.9832C29.5433 15.8758 29.6425 15.7567 29.7282 15.6279L28.0626 14.5207ZM28.1139 14.482C27.6472 14.8542 27.1736 15.2317 26.7055 15.6165L27.9754 17.1616C28.4301 16.7878 28.892 16.4195 29.3607 16.0458L28.1139 14.482ZM26.6816 15.6367C26.4381 15.85 26.2812 16.1452 26.2408 16.4665L28.2252 16.7161C28.2044 16.8807 28.1241 17.032 27.9993 17.1413L26.6816 15.6367ZM26.2357 16.5174C26.1916 17.1132 26.1875 17.5148 26.1367 18.029L28.127 18.2255C28.1774 17.7157 28.1985 17.0934 28.2302 16.6652L26.2357 16.5174ZM26.1354 18.0433C26.0399 19.1771 25.7257 20.2817 25.2101 21.2959L26.993 22.2022C27.6256 20.9577 28.0112 19.6023 28.1283 18.2112L26.1354 18.0433ZM25.2144 21.2876C24.5233 22.6161 23.451 23.7078 22.1351 24.4227L23.0898 26.1801C24.756 25.275 26.1137 23.8927 26.9887 22.2106L25.2144 21.2876ZM22.1395 24.4203C21.3681 24.8343 20.5182 25.0811 19.645 25.1447L19.7901 27.1394C20.9436 27.0555 22.0664 26.7294 23.0854 26.1825L22.1395 24.4203ZM19.6107 25.1478C18.565 25.2601 17.5078 25.1889 16.4867 24.9372L16.0081 26.8791C17.2555 27.1865 18.547 27.2736 19.8244 27.1363L19.6107 25.1478ZM16.4622 24.9315C15.5261 24.7256 14.6519 24.3015 13.9107 23.6938L12.6425 25.2403C13.6273 26.0478 14.7888 26.6113 16.0326 26.8848L16.4622 24.9315ZM13.9072 23.6909C13.8914 23.678 13.8793 23.6662 13.8132 23.6044C13.7617 23.5563 13.6702 23.4713 13.5562 23.3909L12.4029 25.0248C12.3964 25.0203 12.4028 25.0238 12.4477 25.0657C12.4631 25.0801 12.4983 25.1134 12.5263 25.1391C12.5581 25.1683 12.599 25.2049 12.646 25.2431L13.9072 23.6909ZM13.4481 23.3245C13.5575 23.3825 13.6468 23.4722 13.7043 23.5818L11.9332 24.5109C12.0629 24.7582 12.2643 24.9605 12.511 25.0913L13.4481 23.3245ZM13.7043 23.5818C13.7619 23.6915 13.7849 23.8159 13.7705 23.9389L11.7841 23.7057C11.7516 23.983 11.8035 24.2637 11.9332 24.5109L13.7043 23.5818ZM13.7135 24.1738C13.6745 24.2775 13.6062 24.3677 13.5169 24.4332L12.3341 22.8204C12.1101 22.9847 11.9388 23.2107 11.8411 23.4708L13.7135 24.1738ZM13.5169 24.4332C13.4275 24.4987 13.321 24.5368 13.2104 24.5427L13.1027 22.5456C12.8252 22.5606 12.5582 22.6561 12.3341 22.8204L13.5169 24.4332ZM13.1959 24.5434L14.8014 24.4802L14.7227 22.4817L13.1172 22.545L13.1959 24.5434ZM14.8297 24.4787C15.4034 24.4398 15.9651 24.2953 16.4863 24.0525L15.6419 22.2395C15.3437 22.3784 15.0225 22.461 14.6943 22.4833L14.8297 24.4787ZM16.6523 22.3372C16.6177 22.3121 16.5023 22.2237 16.389 22.1557L15.36 23.8707C15.3585 23.8698 15.3638 23.8729 15.3837 23.8872C15.3938 23.8944 15.4052 23.9028 15.4212 23.9145C15.4359 23.9254 15.4556 23.9399 15.4759 23.9547L16.6523 22.3372ZM16.4288 22.1809C15.8199 21.7754 15.256 21.3061 14.7466 20.781L13.311 22.1735C13.9194 22.8007 14.5929 23.3612 15.3202 23.8456L16.4288 22.1809ZM14.6083 20.6623C14.7189 20.741 14.8001 20.8544 14.8388 20.9845L12.9218 21.5548C13.0104 21.8526 13.1961 22.1122 13.4493 22.2922L14.6083 20.6623ZM14.8388 20.9845C14.8775 21.1146 14.8715 21.2539 14.8219 21.3803L12.9604 20.649C12.8468 20.9381 12.8332 21.257 12.9218 21.5548L14.8388 20.9845ZM14.8219 21.3803C14.7723 21.5066 14.6818 21.6127 14.5649 21.6817L13.5487 19.9591C13.2811 20.1169 13.074 20.3598 12.9604 20.649L14.8219 21.3803ZM14.5649 21.6817C14.448 21.7506 14.3114 21.7785 14.1768 21.7608L14.4371 19.7779C14.129 19.7374 13.8163 19.8012 13.5487 19.9591L14.5649 21.6817ZM14.3069 21.7693C14.5413 21.7693 14.8679 21.7715 15.242 21.7019L14.8762 19.7357C14.7067 19.7672 14.553 19.7693 14.3069 19.7693V21.7693ZM15.8728 20.1375C15.8509 20.1068 15.8343 20.0819 15.8084 20.0435C15.7858 20.01 15.7483 19.9544 15.7031 19.8963L14.1244 21.1241C14.1234 21.1229 14.127 21.1273 14.1502 21.1618C14.1701 21.1913 14.2041 21.2423 14.2454 21.3L15.8728 20.1375ZM15.7136 19.91C15.1847 19.2051 14.7522 18.4328 14.4275 17.6135L12.5682 18.3503C12.9584 19.3349 13.4782 20.2631 14.1138 21.1103L15.7136 19.91ZM14.3247 17.4194C14.3976 17.5265 14.4366 17.6531 14.4366 17.7828H12.4366C12.4366 18.0544 12.5183 18.3198 12.6711 18.5444L14.3247 17.4194ZM14.4366 17.7828C14.4366 17.9124 14.3976 18.039 14.3247 18.1462L12.6711 17.0212C12.5183 17.2458 12.4366 17.5111 12.4366 17.7828H14.4366ZM14.3118 18.1646C14.2344 18.273 14.1243 18.3536 13.9976 18.3946L13.382 16.4917C13.1005 16.5828 12.8558 16.7619 12.6839 17.0027L14.3118 18.1646ZM13.9976 18.3946C13.8709 18.4356 13.7344 18.4347 13.6083 18.3922L14.2471 16.497C13.9667 16.4025 13.6635 16.4006 13.382 16.4917L13.9976 18.3946ZM13.6622 18.4087L14.0983 18.5288L14.6293 16.6006L14.1932 16.4805L13.6622 18.4087ZM15.3001 17.2136C15.2228 17.0072 15.1736 16.8727 15.1357 16.7401L13.2127 17.2895C13.2759 17.5109 13.3532 17.7176 13.4275 17.9158L15.3001 17.2136ZM15.1298 16.7202C14.8903 15.9431 14.8506 15.118 15.0146 14.3215L13.0557 13.9182C12.8239 15.0443 12.8799 16.2107 13.2186 17.3094L15.1298 16.7202ZM15.0095 14.3447C15.0179 14.3083 15.0202 14.3019 15.019 14.3054C15.0175 14.3102 15.0062 14.3454 14.9782 14.3937C14.9484 14.4453 14.8999 14.5113 14.8262 14.573C14.7511 14.6358 14.6715 14.6761 14.6003 14.699L13.9883 12.7949C13.2203 13.0418 13.0885 13.7749 13.0607 13.895L15.0095 14.3447ZM14.5664 14.7092C14.4686 14.7368 14.3651 14.7366 14.2675 14.7085L14.8204 12.7865C14.5597 12.7115 14.2832 12.7109 14.0222 12.7847L14.5664 14.7092ZM14.2675 14.7085C14.1698 14.6804 14.082 14.6256 14.0139 14.5503L15.4975 13.2091C15.3156 13.0078 15.0811 12.8615 14.8204 12.7865L14.2675 14.7085ZM14.0682 14.6059C15.3481 15.8174 16.9248 16.6699 18.6393 17.0775L19.1018 15.1317C17.7295 14.8055 16.4675 14.1231 15.4432 13.1534L14.0682 14.6059ZM18.6215 17.0731C19.0536 17.1842 19.6016 17.2968 20.0025 17.393L20.4692 15.4482C19.9219 15.3169 19.5725 15.2525 19.1196 15.1361L18.6215 17.0731ZM21.2345 16.3684C21.2236 16.161 21.2236 15.9533 21.2345 15.746L19.2372 15.6415C19.2227 15.9184 19.2227 16.1959 19.2372 16.4729L21.2345 16.3684ZM21.227 15.8261C21.3039 15.2508 21.5954 14.7259 22.0431 14.3566L20.7705 12.8137C19.9334 13.5042 19.3883 14.4857 19.2446 15.5614L21.227 15.8261ZM22.0431 14.3566C22.4908 13.9873 23.0617 13.801 23.641 13.835L23.7583 11.8384C22.675 11.7748 21.6077 12.1232 20.7705 12.8137L22.0431 14.3566ZM23.6559 13.8358C24.1177 13.856 24.5538 14.0537 24.8734 14.3877L26.3184 13.005C25.6425 12.2987 24.7201 11.8805 23.7434 11.8377L23.6559 13.8358ZM24.753 14.2345C24.8394 14.3697 24.953 14.4854 25.0867 14.5742L26.193 12.908C26.2915 12.9734 26.3752 13.0587 26.4387 13.1582L24.753 14.2345ZM25.0867 14.5742C25.2203 14.6629 25.371 14.7228 25.5292 14.7499L25.8671 12.7786C25.9835 12.7986 26.0946 12.8427 26.193 12.908L25.0867 14.5742ZM25.5292 14.7499C25.6873 14.777 25.8493 14.7707 26.0049 14.7316L25.5167 12.7921C25.6313 12.7632 25.7506 12.7587 25.8671 12.7786L25.5292 14.7499ZM26.0049 14.7316C26.1605 14.6924 26.3062 14.6212 26.4326 14.5224L25.2016 12.9461C25.2948 12.8734 25.4021 12.8209 25.5167 12.7921L26.0049 14.7316ZM26.2441 14.6386C26.6523 14.4458 27.0924 14.3295 27.5425 14.2953L27.3912 12.301C26.6974 12.3537 26.0192 12.533 25.3901 12.83L26.2441 14.6386ZM27.5986 14.2894C27.4749 14.3059 27.3491 14.2868 27.2358 14.2345L28.0739 12.4186C27.8432 12.3121 27.587 12.2734 27.3351 12.3069L27.5986 14.2894ZM27.2358 14.2345C27.1225 14.1822 27.0264 14.0988 26.9586 13.994L28.6383 12.9084C28.5004 12.695 28.3047 12.5251 28.0739 12.4186L27.2358 14.2345ZM26.9586 13.994C26.8909 13.8893 26.8543 13.7674 26.8532 13.6426L28.8531 13.6241C28.8507 13.37 28.7763 13.1218 28.6383 12.9084L26.9586 13.994ZM26.8532 13.6426C26.852 13.5178 26.8864 13.3952 26.9521 13.2892L28.6516 14.3437C28.7855 14.1278 28.8554 13.8782 28.8531 13.6241L26.8532 13.6426ZM26.9074 13.3692C26.862 13.4602 26.8307 13.5055 26.7381 13.6721L28.4864 14.6434C28.5202 14.5825 28.628 14.4003 28.6963 14.2637L26.9074 13.3692ZM26.7547 13.6433L26.3755 14.2754L28.0905 15.3044L28.4697 14.6723L26.7547 13.6433ZM27.4139 15.7734L28.5137 15.5711L28.1519 13.6041L27.0521 13.8064L27.4139 15.7734ZM28.4172 15.584C28.5002 15.577 28.5099 15.5797 28.4888 15.5782C28.4582 15.5761 28.3468 15.5645 28.2154 15.4914C28.0796 15.4158 28.005 15.3207 27.9782 15.2818C27.9611 15.2571 27.9617 15.2517 27.997 15.3239L29.7937 14.4455C29.7525 14.3611 29.585 13.9648 29.1882 13.7439C28.8055 13.5309 28.3908 13.5791 28.2484 13.5912L28.4172 15.584Z" fill="#E6E6E6" mask="url(#path-3-inside-2_381_400)"/>
</svg>
